<?xml version="1.0" encoding="utf-8" standalone="no"?>
<!DOCTYPE svg PUBLIC "-//W3C//DTD SVG 1.1//EN"
  "http://www.w3.org/Graphics/SVG/1.1/DTD/svg11.dtd">
<svg xmlns:xlink="http://www.w3.org/1999/xlink" width="460.8pt" height="345.6pt" viewBox="0 0 460.8 345.6" xmlns="http://www.w3.org/2000/svg" version="1.1">
 <metadata>
  <rdf:RDF xmlns:dc="http://purl.org/dc/elements/1.1/" xmlns:cc="http://creativecommons.org/ns#" xmlns:rdf="http://www.w3.org/1999/02/22-rdf-syntax-ns#">
   <cc:Work>
    <dc:type rdf:resource="http://purl.org/dc/dcmitype/StillImage"/>
    <dc:date>2022-11-16T13:34:15.861701</dc:date>
    <dc:format>image/svg+xml</dc:format>
    <dc:creator>
     <cc:Agent>
      <dc:title>Matplotlib v3.6.2, https://matplotlib.org/</dc:title>
     </cc:Agent>
    </dc:creator>
   </cc:Work>
  </rdf:RDF>
 </metadata>
 <defs>
  <style type="text/css">*{stroke-linejoin: round; stroke-linecap: butt}</style>
 </defs>
 <g id="figure_1">
  <g id="patch_1">
   <path d="M 0 345.6 
L 460.8 345.6 
L 460.8 0 
L 0 0 
z
" style="fill: #ffffff"/>
  </g>
  <g id="axes_1">
   <g id="patch_2">
    <path d="M 57.6 99.322435 
L 414.72 99.322435 
L 414.72 41.472 
L 57.6 41.472 
z
" style="fill: #ffffff"/>
   </g>
   <g id="PolyCollection_1">
    <defs>
     <path id="m58b54395d3" d="M 73.832727 -255.691681 
L 73.832727 -255.691681 
L 82.157203 -255.691681 
L 90.481678 -255.691681 
L 98.806154 -255.691681 
L 107.130629 -255.691681 
L 115.455105 -255.691681 
L 123.77958 -255.691681 
L 132.104056 -255.691681 
L 140.428531 -255.691681 
L 148.753007 -255.691681 
L 157.077483 -255.691681 
L 165.401958 -255.691681 
L 173.726434 -255.691681 
L 182.050909 -255.691681 
L 190.375385 -255.691681 
L 198.69986 -255.691681 
L 207.024336 -255.691681 
L 215.348811 -255.691681 
L 223.673287 -255.691681 
L 231.997762 -255.691681 
L 240.322238 -255.691681 
L 248.646713 -255.691681 
L 256.971189 -255.691681 
L 265.295664 -255.691681 
L 273.62014 -255.691681 
L 281.944615 -255.691681 
L 290.269091 -255.691681 
L 298.593566 -255.691681 
L 306.918042 -255.691681 
L 315.242517 -255.691681 
L 323.566993 -255.691681 
L 331.891469 -255.691681 
L 340.215944 -255.691681 
L 348.54042 -255.691681 
L 356.864895 -255.691681 
L 365.189371 -255.691681 
L 373.513846 -255.691681 
L 381.838322 -255.691681 
L 390.162797 -255.691681 
L 398.487273 -255.691681 
L 398.487273 -301.498435 
L 398.487273 -301.498435 
L 390.162797 -248.90713 
L 381.838322 -256.696557 
L 373.513846 -255.542846 
L 365.189371 -255.713725 
L 356.864895 -255.688416 
L 348.54042 -255.692164 
L 340.215944 -255.691609 
L 331.891469 -255.691691 
L 323.566993 -255.691679 
L 315.242517 -255.691681 
L 306.918042 -255.691681 
L 298.593566 -255.691681 
L 290.269091 -255.691681 
L 281.944615 -255.691681 
L 273.62014 -255.691681 
L 265.295664 -255.691681 
L 256.971189 -255.691681 
L 248.646713 -255.691681 
L 240.322238 -255.691681 
L 231.997762 -255.691681 
L 223.673287 -255.691681 
L 215.348811 -255.691681 
L 207.024336 -255.691681 
L 198.69986 -255.691681 
L 190.375385 -255.691681 
L 182.050909 -255.691681 
L 173.726434 -255.691681 
L 165.401958 -255.691681 
L 157.077483 -255.691681 
L 148.753007 -255.691681 
L 140.428531 -255.691681 
L 132.104056 -255.691681 
L 123.77958 -255.691681 
L 115.455105 -255.691681 
L 107.130629 -255.691681 
L 98.806154 -255.691681 
L 90.481678 -255.691681 
L 82.157203 -255.691681 
L 73.832727 -255.691681 
z
" style="stroke: #00ffff; stroke-opacity: 0.25"/>
    </defs>
    <g clip-path="url(#pa0cf110e7a)">
     <use xlink:href="#m58b54395d3" x="0" y="345.6" style="fill: #00ffff; fill-opacity: 0.25; stroke: #00ffff; stroke-opacity: 0.25"/>
    </g>
   </g>
   <g id="PolyCollection_2">
    <defs>
     <path id="m3282f38058" d="M 73.832727 -255.691681 
L 73.832727 -255.691681 
L 82.157203 -255.691681 
L 90.481678 -255.691681 
L 98.806154 -255.691681 
L 107.130629 -255.691681 
L 115.455105 -255.691681 
L 123.77958 -255.691681 
L 132.104056 -255.691681 
L 140.428531 -255.691681 
L 148.753007 -255.691681 
L 157.077483 -255.691681 
L 165.401958 -255.691681 
L 173.726434 -255.691681 
L 182.050909 -255.691681 
L 190.375385 -255.691681 
L 198.69986 -255.691681 
L 207.024336 -255.691681 
L 215.348811 -255.691681 
L 223.673287 -255.691681 
L 231.997762 -255.691681 
L 240.322238 -255.691681 
L 248.646713 -255.691681 
L 256.971189 -255.691681 
L 265.295664 -255.691681 
L 273.62014 -255.691681 
L 281.944615 -255.691681 
L 290.269091 -255.691681 
L 298.593566 -255.691681 
L 306.918042 -255.691681 
L 315.242517 -255.691681 
L 323.566993 -255.691682 
L 331.891469 -255.691691 
L 340.215944 -255.691752 
L 348.54042 -255.692164 
L 356.864895 -255.694946 
L 365.189371 -255.713725 
L 373.513846 -255.840515 
L 381.838322 -256.696557 
L 390.162797 -262.476231 
L 398.487273 -301.498435 
L 398.487273 -255.691681 
L 398.487273 -255.691681 
L 390.162797 -255.691681 
L 381.838322 -255.691681 
L 373.513846 -255.691681 
L 365.189371 -255.691681 
L 356.864895 -255.691681 
L 348.54042 -255.691681 
L 340.215944 -255.691681 
L 331.891469 -255.691681 
L 323.566993 -255.691681 
L 315.242517 -255.691681 
L 306.918042 -255.691681 
L 298.593566 -255.691681 
L 290.269091 -255.691681 
L 281.944615 -255.691681 
L 273.62014 -255.691681 
L 265.295664 -255.691681 
L 256.971189 -255.691681 
L 248.646713 -255.691681 
L 240.322238 -255.691681 
L 231.997762 -255.691681 
L 223.673287 -255.691681 
L 215.348811 -255.691681 
L 207.024336 -255.691681 
L 198.69986 -255.691681 
L 190.375385 -255.691681 
L 182.050909 -255.691681 
L 173.726434 -255.691681 
L 165.401958 -255.691681 
L 157.077483 -255.691681 
L 148.753007 -255.691681 
L 140.428531 -255.691681 
L 132.104056 -255.691681 
L 123.77958 -255.691681 
L 115.455105 -255.691681 
L 107.130629 -255.691681 
L 98.806154 -255.691681 
L 90.481678 -255.691681 
L 82.157203 -255.691681 
L 73.832727 -255.691681 
z
" style="stroke: #008000; stroke-opacity: 0.25"/>
    </defs>
    <g clip-path="url(#pa0cf110e7a)">
     <use xlink:href="#m3282f38058" x="0" y="345.6" style="fill: #008000; fill-opacity: 0.25; stroke: #008000; stroke-opacity: 0.25"/>
    </g>
   </g>
   <g id="matplotlib.axis_1">
    <g id="xtick_1">
     <g id="line2d_1">
      <defs>
       <path id="m7b433a1588" d="M 0 0 
L 0 3.5 
" style="stroke: #000000; stroke-width: 0.8"/>
      </defs>
      <g>
       <use xlink:href="#m7b433a1588" x="73.832727" y="99.322435" style="stroke: #000000; stroke-width: 0.8"/>
      </g>
     </g>
     <g id="text_1">
      <!-- 0.0 -->
      <g transform="translate(65.881165 113.920872) scale(0.1 -0.1)">
       <defs>
        <path id="DejaVuSans-30" d="M 2034 4250 
Q 1547 4250 1301 3770 
Q 1056 3291 1056 2328 
Q 1056 1369 1301 889 
Q 1547 409 2034 409 
Q 2525 409 2770 889 
Q 3016 1369 3016 2328 
Q 3016 3291 2770 3770 
Q 2525 4250 2034 4250 
z
M 2034 4750 
Q 2819 4750 3233 4129 
Q 3647 3509 3647 2328 
Q 3647 1150 3233 529 
Q 2819 -91 2034 -91 
Q 1250 -91 836 529 
Q 422 1150 422 2328 
Q 422 3509 836 4129 
Q 1250 4750 2034 4750 
z
" transform="scale(0.015625)"/>
        <path id="DejaVuSans-2e" d="M 684 794 
L 1344 794 
L 1344 0 
L 684 0 
L 684 794 
z
" transform="scale(0.015625)"/>
       </defs>
       <use xlink:href="#DejaVuSans-30"/>
       <use xlink:href="#DejaVuSans-2e" x="63.623047"/>
       <use xlink:href="#DejaVuSans-30" x="95.410156"/>
      </g>
     </g>
    </g>
    <g id="xtick_2">
     <g id="line2d_2">
      <g>
       <use xlink:href="#m7b433a1588" x="115.455105" y="99.322435" style="stroke: #000000; stroke-width: 0.8"/>
      </g>
     </g>
     <g id="text_2">
      <!-- 2.5 -->
      <g transform="translate(107.503542 113.920872) scale(0.1 -0.1)">
       <defs>
        <path id="DejaVuSans-32" d="M 1228 531 
L 3431 531 
L 3431 0 
L 469 0 
L 469 531 
Q 828 903 1448 1529 
Q 2069 2156 2228 2338 
Q 2531 2678 2651 2914 
Q 2772 3150 2772 3378 
Q 2772 3750 2511 3984 
Q 2250 4219 1831 4219 
Q 1534 4219 1204 4116 
Q 875 4013 500 3803 
L 500 4441 
Q 881 4594 1212 4672 
Q 1544 4750 1819 4750 
Q 2544 4750 2975 4387 
Q 3406 4025 3406 3419 
Q 3406 3131 3298 2873 
Q 3191 2616 2906 2266 
Q 2828 2175 2409 1742 
Q 1991 1309 1228 531 
z
" transform="scale(0.015625)"/>
        <path id="DejaVuSans-35" d="M 691 4666 
L 3169 4666 
L 3169 4134 
L 1269 4134 
L 1269 2991 
Q 1406 3038 1543 3061 
Q 1681 3084 1819 3084 
Q 2600 3084 3056 2656 
Q 3513 2228 3513 1497 
Q 3513 744 3044 326 
Q 2575 -91 1722 -91 
Q 1428 -91 1123 -41 
Q 819 9 494 109 
L 494 744 
Q 775 591 1075 516 
Q 1375 441 1709 441 
Q 2250 441 2565 725 
Q 2881 1009 2881 1497 
Q 2881 1984 2565 2268 
Q 2250 2553 1709 2553 
Q 1456 2553 1204 2497 
Q 953 2441 691 2322 
L 691 4666 
z
" transform="scale(0.015625)"/>
       </defs>
       <use xlink:href="#DejaVuSans-32"/>
       <use xlink:href="#DejaVuSans-2e" x="63.623047"/>
       <use xlink:href="#DejaVuSans-35" x="95.410156"/>
      </g>
     </g>
    </g>
    <g id="xtick_3">
     <g id="line2d_3">
      <g>
       <use xlink:href="#m7b433a1588" x="157.077483" y="99.322435" style="stroke: #000000; stroke-width: 0.8"/>
      </g>
     </g>
     <g id="text_3">
      <!-- 5.0 -->
      <g transform="translate(149.12592 113.920872) scale(0.1 -0.1)">
       <use xlink:href="#DejaVuSans-35"/>
       <use xlink:href="#DejaVuSans-2e" x="63.623047"/>
       <use xlink:href="#DejaVuSans-30" x="95.410156"/>
      </g>
     </g>
    </g>
    <g id="xtick_4">
     <g id="line2d_4">
      <g>
       <use xlink:href="#m7b433a1588" x="198.69986" y="99.322435" style="stroke: #000000; stroke-width: 0.8"/>
      </g>
     </g>
     <g id="text_4">
      <!-- 7.5 -->
      <g transform="translate(190.748298 113.920872) scale(0.1 -0.1)">
       <defs>
        <path id="DejaVuSans-37" d="M 525 4666 
L 3525 4666 
L 3525 4397 
L 1831 0 
L 1172 0 
L 2766 4134 
L 525 4134 
L 525 4666 
z
" transform="scale(0.015625)"/>
       </defs>
       <use xlink:href="#DejaVuSans-37"/>
       <use xlink:href="#DejaVuSans-2e" x="63.623047"/>
       <use xlink:href="#DejaVuSans-35" x="95.410156"/>
      </g>
     </g>
    </g>
    <g id="xtick_5">
     <g id="line2d_5">
      <g>
       <use xlink:href="#m7b433a1588" x="240.322238" y="99.322435" style="stroke: #000000; stroke-width: 0.8"/>
      </g>
     </g>
     <g id="text_5">
      <!-- 10.0 -->
      <g transform="translate(229.189425 113.920872) scale(0.1 -0.1)">
       <defs>
        <path id="DejaVuSans-31" d="M 794 531 
L 1825 531 
L 1825 4091 
L 703 3866 
L 703 4441 
L 1819 4666 
L 2450 4666 
L 2450 531 
L 3481 531 
L 3481 0 
L 794 0 
L 794 531 
z
" transform="scale(0.015625)"/>
       </defs>
       <use xlink:href="#DejaVuSans-31"/>
       <use xlink:href="#DejaVuSans-30" x="63.623047"/>
       <use xlink:href="#DejaVuSans-2e" x="127.246094"/>
       <use xlink:href="#DejaVuSans-30" x="159.033203"/>
      </g>
     </g>
    </g>
    <g id="xtick_6">
     <g id="line2d_6">
      <g>
       <use xlink:href="#m7b433a1588" x="281.944615" y="99.322435" style="stroke: #000000; stroke-width: 0.8"/>
      </g>
     </g>
     <g id="text_6">
      <!-- 12.5 -->
      <g transform="translate(270.811803 113.920872) scale(0.1 -0.1)">
       <use xlink:href="#DejaVuSans-31"/>
       <use xlink:href="#DejaVuSans-32" x="63.623047"/>
       <use xlink:href="#DejaVuSans-2e" x="127.246094"/>
       <use xlink:href="#DejaVuSans-35" x="159.033203"/>
      </g>
     </g>
    </g>
    <g id="xtick_7">
     <g id="line2d_7">
      <g>
       <use xlink:href="#m7b433a1588" x="323.566993" y="99.322435" style="stroke: #000000; stroke-width: 0.8"/>
      </g>
     </g>
     <g id="text_7">
      <!-- 15.0 -->
      <g transform="translate(312.434181 113.920872) scale(0.1 -0.1)">
       <use xlink:href="#DejaVuSans-31"/>
       <use xlink:href="#DejaVuSans-35" x="63.623047"/>
       <use xlink:href="#DejaVuSans-2e" x="127.246094"/>
       <use xlink:href="#DejaVuSans-30" x="159.033203"/>
      </g>
     </g>
    </g>
    <g id="xtick_8">
     <g id="line2d_8">
      <g>
       <use xlink:href="#m7b433a1588" x="365.189371" y="99.322435" style="stroke: #000000; stroke-width: 0.8"/>
      </g>
     </g>
     <g id="text_8">
      <!-- 17.5 -->
      <g transform="translate(354.056558 113.920872) scale(0.1 -0.1)">
       <use xlink:href="#DejaVuSans-31"/>
       <use xlink:href="#DejaVuSans-37" x="63.623047"/>
       <use xlink:href="#DejaVuSans-2e" x="127.246094"/>
       <use xlink:href="#DejaVuSans-35" x="159.033203"/>
      </g>
     </g>
    </g>
    <g id="xtick_9">
     <g id="line2d_9">
      <g>
       <use xlink:href="#m7b433a1588" x="406.811748" y="99.322435" style="stroke: #000000; stroke-width: 0.8"/>
      </g>
     </g>
     <g id="text_9">
      <!-- 20.0 -->
      <g transform="translate(395.678936 113.920872) scale(0.1 -0.1)">
       <use xlink:href="#DejaVuSans-32"/>
       <use xlink:href="#DejaVuSans-30" x="63.623047"/>
       <use xlink:href="#DejaVuSans-2e" x="127.246094"/>
       <use xlink:href="#DejaVuSans-30" x="159.033203"/>
      </g>
     </g>
    </g>
   </g>
   <g id="matplotlib.axis_2">
    <g id="ytick_1">
     <g id="line2d_10">
      <defs>
       <path id="m2b8bd6d95c" d="M 0 0 
L -3.5 0 
" style="stroke: #000000; stroke-width: 0.8"/>
      </defs>
      <g>
       <use xlink:href="#m2b8bd6d95c" x="57.6" y="89.908319" style="stroke: #000000; stroke-width: 0.8"/>
      </g>
     </g>
     <g id="text_10">
      <!-- 0 -->
      <g transform="translate(44.2375 93.707538) scale(0.1 -0.1)">
       <use xlink:href="#DejaVuSans-30"/>
      </g>
     </g>
    </g>
    <g id="ytick_2">
     <g id="line2d_11">
      <g>
       <use xlink:href="#m2b8bd6d95c" x="57.6" y="60.270102" style="stroke: #000000; stroke-width: 0.8"/>
      </g>
     </g>
     <g id="text_11">
      <!-- 2 -->
      <g transform="translate(44.2375 64.069321) scale(0.1 -0.1)">
       <use xlink:href="#DejaVuSans-32"/>
      </g>
     </g>
    </g>
    <g id="text_12">
     <!-- 1e31 -->
     <g transform="translate(57.6 38.472) scale(0.1 -0.1)">
      <defs>
       <path id="DejaVuSans-65" d="M 3597 1894 
L 3597 1613 
L 953 1613 
Q 991 1019 1311 708 
Q 1631 397 2203 397 
Q 2534 397 2845 478 
Q 3156 559 3463 722 
L 3463 178 
Q 3153 47 2828 -22 
Q 2503 -91 2169 -91 
Q 1331 -91 842 396 
Q 353 884 353 1716 
Q 353 2575 817 3079 
Q 1281 3584 2069 3584 
Q 2775 3584 3186 3129 
Q 3597 2675 3597 1894 
z
M 3022 2063 
Q 3016 2534 2758 2815 
Q 2500 3097 2075 3097 
Q 1594 3097 1305 2825 
Q 1016 2553 972 2059 
L 3022 2063 
z
" transform="scale(0.015625)"/>
       <path id="DejaVuSans-33" d="M 2597 2516 
Q 3050 2419 3304 2112 
Q 3559 1806 3559 1356 
Q 3559 666 3084 287 
Q 2609 -91 1734 -91 
Q 1441 -91 1130 -33 
Q 819 25 488 141 
L 488 750 
Q 750 597 1062 519 
Q 1375 441 1716 441 
Q 2309 441 2620 675 
Q 2931 909 2931 1356 
Q 2931 1769 2642 2001 
Q 2353 2234 1838 2234 
L 1294 2234 
L 1294 2753 
L 1863 2753 
Q 2328 2753 2575 2939 
Q 2822 3125 2822 3475 
Q 2822 3834 2567 4026 
Q 2313 4219 1838 4219 
Q 1578 4219 1281 4162 
Q 984 4106 628 3988 
L 628 4550 
Q 988 4650 1302 4700 
Q 1616 4750 1894 4750 
Q 2613 4750 3031 4423 
Q 3450 4097 3450 3541 
Q 3450 3153 3228 2886 
Q 3006 2619 2597 2516 
z
" transform="scale(0.015625)"/>
      </defs>
      <use xlink:href="#DejaVuSans-31"/>
      <use xlink:href="#DejaVuSans-65" x="63.623047"/>
      <use xlink:href="#DejaVuSans-33" x="125.146484"/>
      <use xlink:href="#DejaVuSans-31" x="188.769531"/>
     </g>
    </g>
   </g>
   <g id="line2d_12">
    <path d="M 73.832727 89.908319 
L 82.157203 89.908319 
L 90.481678 89.908319 
L 98.806154 89.908319 
L 107.130629 89.908319 
L 115.455105 89.908319 
L 123.77958 89.908319 
L 132.104056 89.908319 
L 140.428531 89.908319 
L 148.753007 89.908319 
L 157.077483 89.908319 
L 165.401958 89.908319 
L 173.726434 89.908319 
L 182.050909 89.908319 
L 190.375385 89.908319 
L 198.69986 89.908319 
L 207.024336 89.908319 
L 215.348811 89.908319 
L 223.673287 89.908319 
L 231.997762 89.908319 
L 240.322238 89.908319 
L 248.646713 89.908319 
L 256.971189 89.908319 
L 265.295664 89.908319 
L 273.62014 89.908319 
L 281.944615 89.908319 
L 290.269091 89.908319 
L 298.593566 89.908319 
L 306.918042 89.908319 
L 315.242517 89.908319 
L 323.566993 89.908321 
L 331.891469 89.908309 
L 340.215944 89.908391 
L 348.54042 89.907836 
L 356.864895 89.911584 
L 365.189371 89.886275 
L 373.513846 90.057154 
L 381.838322 88.903443 
L 390.162797 96.69287 
L 398.487273 44.101565 
" clip-path="url(#pa0cf110e7a)" style="fill: none; stroke: #ff69b4; stroke-width: 1.5; stroke-linecap: square"/>
   </g>
   <g id="line2d_13">
    <path d="M 73.832727 89.908319 
L 82.157203 89.908319 
L 90.481678 89.908319 
L 98.806154 89.908319 
L 107.130629 89.908319 
L 115.455105 89.908319 
L 123.77958 89.908319 
L 132.104056 89.908319 
L 140.428531 89.908319 
L 148.753007 89.908319 
L 157.077483 89.908319 
L 165.401958 89.908319 
L 173.726434 89.908319 
L 182.050909 89.908319 
L 190.375385 89.908319 
L 198.69986 89.908319 
L 207.024336 89.908319 
L 215.348811 89.908319 
L 223.673287 89.908319 
L 231.997762 89.908319 
L 240.322238 89.908319 
L 248.646713 89.908319 
L 256.971189 89.908319 
L 265.295664 89.908319 
L 273.62014 89.908319 
L 281.944615 89.908319 
L 290.269091 89.908319 
L 298.593566 89.908319 
L 306.918042 89.908319 
L 315.242517 89.908319 
L 323.566993 89.908319 
L 331.891469 89.908319 
L 340.215944 89.908319 
L 348.54042 89.908319 
L 356.864895 89.908319 
L 365.189371 89.908319 
L 373.513846 89.908319 
L 381.838322 89.908319 
L 390.162797 89.908319 
L 398.487273 89.908319 
" clip-path="url(#pa0cf110e7a)" style="fill: none; stroke: #0000cd; stroke-width: 1.5; stroke-linecap: square"/>
   </g>
   <g id="line2d_14">
    <path d="M 73.832727 89.908319 
L 82.157203 89.908319 
L 90.481678 89.908319 
L 98.806154 89.908319 
L 107.130629 89.908319 
L 115.455105 89.908319 
L 123.77958 89.908319 
L 132.104056 89.908319 
L 140.428531 89.908319 
L 148.753007 89.908319 
L 157.077483 89.908319 
L 165.401958 89.908319 
L 173.726434 89.908319 
L 182.050909 89.908319 
L 190.375385 89.908319 
L 198.69986 89.908319 
L 207.024336 89.908319 
L 215.348811 89.908319 
L 223.673287 89.908319 
L 231.997762 89.908319 
L 240.322238 89.908319 
L 248.646713 89.908319 
L 256.971189 89.908319 
L 265.295664 89.908319 
L 273.62014 89.908319 
L 281.944615 89.908319 
L 290.269091 89.908319 
L 298.593566 89.908319 
L 306.918042 89.908319 
L 315.242517 89.908319 
L 323.566993 89.908318 
L 331.891469 89.908309 
L 340.215944 89.908248 
L 348.54042 89.907836 
L 356.864895 89.905054 
L 365.189371 89.886275 
L 373.513846 89.759485 
L 381.838322 88.903443 
L 390.162797 83.123769 
L 398.487273 44.101565 
" clip-path="url(#pa0cf110e7a)" style="fill: none; stroke: #008000; stroke-width: 1.5; stroke-linecap: square"/>
   </g>
   <g id="patch_3">
    <path d="M 57.6 99.322435 
L 57.6 41.472 
" style="fill: none; stroke: #000000; stroke-width: 0.8; stroke-linejoin: miter; stroke-linecap: square"/>
   </g>
   <g id="patch_4">
    <path d="M 414.72 99.322435 
L 414.72 41.472 
" style="fill: none; stroke: #000000; stroke-width: 0.8; stroke-linejoin: miter; stroke-linecap: square"/>
   </g>
   <g id="patch_5">
    <path d="M 57.6 99.322435 
L 414.72 99.322435 
" style="fill: none; stroke: #000000; stroke-width: 0.8; stroke-linejoin: miter; stroke-linecap: square"/>
   </g>
   <g id="patch_6">
    <path d="M 57.6 41.472 
L 414.72 41.472 
" style="fill: none; stroke: #000000; stroke-width: 0.8; stroke-linejoin: miter; stroke-linecap: square"/>
   </g>
  </g>
  <g id="axes_2">
   <g id="patch_7">
    <path d="M 57.6 168.742957 
L 414.72 168.742957 
L 414.72 110.892522 
L 57.6 110.892522 
z
" style="fill: #ffffff"/>
   </g>
   <g id="PolyCollection_3">
    <defs>
     <path id="m8f7f957280" d="M 73.832727 -186.271159 
L 73.832727 -186.271159 
L 82.157203 -186.271159 
L 90.481678 -186.271159 
L 98.806154 -186.271159 
L 107.130629 -186.271159 
L 115.455105 -186.271159 
L 123.77958 -186.271159 
L 132.104056 -186.271159 
L 140.428531 -186.271159 
L 148.753007 -186.271159 
L 157.077483 -186.271159 
L 165.401958 -186.271159 
L 173.726434 -186.271159 
L 182.050909 -186.271159 
L 190.375385 -186.271159 
L 198.69986 -186.271159 
L 207.024336 -186.271159 
L 215.348811 -186.271159 
L 223.673287 -186.271159 
L 231.997762 -186.271159 
L 240.322238 -186.271159 
L 248.646713 -186.271159 
L 256.971189 -186.271159 
L 265.295664 -186.271159 
L 273.62014 -186.271159 
L 281.944615 -186.271159 
L 290.269091 -186.271159 
L 298.593566 -186.271159 
L 306.918042 -186.271159 
L 315.242517 -186.271159 
L 323.566993 -186.271159 
L 331.891469 -186.271159 
L 340.215944 -186.271159 
L 348.54042 -186.271159 
L 356.864895 -186.271159 
L 365.189371 -186.271159 
L 373.513846 -186.271159 
L 381.838322 -186.271159 
L 390.162797 -186.271159 
L 398.487273 -186.271159 
L 398.487273 -232.077913 
L 398.487273 -232.077913 
L 390.162797 -179.486609 
L 381.838322 -187.276035 
L 373.513846 -186.122324 
L 365.189371 -186.293203 
L 356.864895 -186.267894 
L 348.54042 -186.271642 
L 340.215944 -186.271087 
L 331.891469 -186.27117 
L 323.566993 -186.271157 
L 315.242517 -186.271159 
L 306.918042 -186.271159 
L 298.593566 -186.271159 
L 290.269091 -186.271159 
L 281.944615 -186.271159 
L 273.62014 -186.271159 
L 265.295664 -186.271159 
L 256.971189 -186.271159 
L 248.646713 -186.271159 
L 240.322238 -186.271159 
L 231.997762 -186.271159 
L 223.673287 -186.271159 
L 215.348811 -186.271159 
L 207.024336 -186.271159 
L 198.69986 -186.271159 
L 190.375385 -186.271159 
L 182.050909 -186.271159 
L 173.726434 -186.271159 
L 165.401958 -186.271159 
L 157.077483 -186.271159 
L 148.753007 -186.271159 
L 140.428531 -186.271159 
L 132.104056 -186.271159 
L 123.77958 -186.271159 
L 115.455105 -186.271159 
L 107.130629 -186.271159 
L 98.806154 -186.271159 
L 90.481678 -186.271159 
L 82.157203 -186.271159 
L 73.832727 -186.271159 
z
" style="stroke: #00ffff; stroke-opacity: 0.25"/>
    </defs>
    <g clip-path="url(#p324a98fdc9)">
     <use xlink:href="#m8f7f957280" x="0" y="345.6" style="fill: #00ffff; fill-opacity: 0.25; stroke: #00ffff; stroke-opacity: 0.25"/>
    </g>
   </g>
   <g id="PolyCollection_4">
    <defs>
     <path id="m3721f51890" d="M 73.832727 -186.271159 
L 73.832727 -186.271159 
L 82.157203 -186.271159 
L 90.481678 -186.271159 
L 98.806154 -186.271159 
L 107.130629 -186.271159 
L 115.455105 -186.271159 
L 123.77958 -186.271159 
L 132.104056 -186.271159 
L 140.428531 -186.271159 
L 148.753007 -186.271159 
L 157.077483 -186.271159 
L 165.401958 -186.271159 
L 173.726434 -186.271159 
L 182.050909 -186.271159 
L 190.375385 -186.271159 
L 198.69986 -186.271159 
L 207.024336 -186.271159 
L 215.348811 -186.271159 
L 223.673287 -186.271159 
L 231.997762 -186.271159 
L 240.322238 -186.271159 
L 248.646713 -186.271159 
L 256.971189 -186.271159 
L 265.295664 -186.271159 
L 273.62014 -186.271159 
L 281.944615 -186.271159 
L 290.269091 -186.271159 
L 298.593566 -186.271159 
L 306.918042 -186.271159 
L 315.242517 -186.271159 
L 323.566993 -186.27116 
L 331.891469 -186.27117 
L 340.215944 -186.271231 
L 348.54042 -186.271642 
L 356.864895 -186.274424 
L 365.189371 -186.293203 
L 373.513846 -186.419994 
L 381.838322 -187.276035 
L 390.162797 -193.055709 
L 398.487273 -232.077913 
L 398.487273 -186.271159 
L 398.487273 -186.271159 
L 390.162797 -186.271159 
L 381.838322 -186.271159 
L 373.513846 -186.271159 
L 365.189371 -186.271159 
L 356.864895 -186.271159 
L 348.54042 -186.271159 
L 340.215944 -186.271159 
L 331.891469 -186.271159 
L 323.566993 -186.271159 
L 315.242517 -186.271159 
L 306.918042 -186.271159 
L 298.593566 -186.271159 
L 290.269091 -186.271159 
L 281.944615 -186.271159 
L 273.62014 -186.271159 
L 265.295664 -186.271159 
L 256.971189 -186.271159 
L 248.646713 -186.271159 
L 240.322238 -186.271159 
L 231.997762 -186.271159 
L 223.673287 -186.271159 
L 215.348811 -186.271159 
L 207.024336 -186.271159 
L 198.69986 -186.271159 
L 190.375385 -186.271159 
L 182.050909 -186.271159 
L 173.726434 -186.271159 
L 165.401958 -186.271159 
L 157.077483 -186.271159 
L 148.753007 -186.271159 
L 140.428531 -186.271159 
L 132.104056 -186.271159 
L 123.77958 -186.271159 
L 115.455105 -186.271159 
L 107.130629 -186.271159 
L 98.806154 -186.271159 
L 90.481678 -186.271159 
L 82.157203 -186.271159 
L 73.832727 -186.271159 
z
" style="stroke: #008000; stroke-opacity: 0.25"/>
    </defs>
    <g clip-path="url(#p324a98fdc9)">
     <use xlink:href="#m3721f51890" x="0" y="345.6" style="fill: #008000; fill-opacity: 0.25; stroke: #008000; stroke-opacity: 0.25"/>
    </g>
   </g>
   <g id="matplotlib.axis_3">
    <g id="xtick_10">
     <g id="line2d_15">
      <g>
       <use xlink:href="#m7b433a1588" x="73.832727" y="168.742957" style="stroke: #000000; stroke-width: 0.8"/>
      </g>
     </g>
     <g id="text_13">
      <!-- 0.0 -->
      <g transform="translate(65.881165 183.341394) scale(0.1 -0.1)">
       <use xlink:href="#DejaVuSans-30"/>
       <use xlink:href="#DejaVuSans-2e" x="63.623047"/>
       <use xlink:href="#DejaVuSans-30" x="95.410156"/>
      </g>
     </g>
    </g>
    <g id="xtick_11">
     <g id="line2d_16">
      <g>
       <use xlink:href="#m7b433a1588" x="115.455105" y="168.742957" style="stroke: #000000; stroke-width: 0.8"/>
      </g>
     </g>
     <g id="text_14">
      <!-- 2.5 -->
      <g transform="translate(107.503542 183.341394) scale(0.1 -0.1)">
       <use xlink:href="#DejaVuSans-32"/>
       <use xlink:href="#DejaVuSans-2e" x="63.623047"/>
       <use xlink:href="#DejaVuSans-35" x="95.410156"/>
      </g>
     </g>
    </g>
    <g id="xtick_12">
     <g id="line2d_17">
      <g>
       <use xlink:href="#m7b433a1588" x="157.077483" y="168.742957" style="stroke: #000000; stroke-width: 0.8"/>
      </g>
     </g>
     <g id="text_15">
      <!-- 5.0 -->
      <g transform="translate(149.12592 183.341394) scale(0.1 -0.1)">
       <use xlink:href="#DejaVuSans-35"/>
       <use xlink:href="#DejaVuSans-2e" x="63.623047"/>
       <use xlink:href="#DejaVuSans-30" x="95.410156"/>
      </g>
     </g>
    </g>
    <g id="xtick_13">
     <g id="line2d_18">
      <g>
       <use xlink:href="#m7b433a1588" x="198.69986" y="168.742957" style="stroke: #000000; stroke-width: 0.8"/>
      </g>
     </g>
     <g id="text_16">
      <!-- 7.5 -->
      <g transform="translate(190.748298 183.341394) scale(0.1 -0.1)">
       <use xlink:href="#DejaVuSans-37"/>
       <use xlink:href="#DejaVuSans-2e" x="63.623047"/>
       <use xlink:href="#DejaVuSans-35" x="95.410156"/>
      </g>
     </g>
    </g>
    <g id="xtick_14">
     <g id="line2d_19">
      <g>
       <use xlink:href="#m7b433a1588" x="240.322238" y="168.742957" style="stroke: #000000; stroke-width: 0.8"/>
      </g>
     </g>
     <g id="text_17">
      <!-- 10.0 -->
      <g transform="translate(229.189425 183.341394) scale(0.1 -0.1)">
       <use xlink:href="#DejaVuSans-31"/>
       <use xlink:href="#DejaVuSans-30" x="63.623047"/>
       <use xlink:href="#DejaVuSans-2e" x="127.246094"/>
       <use xlink:href="#DejaVuSans-30" x="159.033203"/>
      </g>
     </g>
    </g>
    <g id="xtick_15">
     <g id="line2d_20">
      <g>
       <use xlink:href="#m7b433a1588" x="281.944615" y="168.742957" style="stroke: #000000; stroke-width: 0.8"/>
      </g>
     </g>
     <g id="text_18">
      <!-- 12.5 -->
      <g transform="translate(270.811803 183.341394) scale(0.1 -0.1)">
       <use xlink:href="#DejaVuSans-31"/>
       <use xlink:href="#DejaVuSans-32" x="63.623047"/>
       <use xlink:href="#DejaVuSans-2e" x="127.246094"/>
       <use xlink:href="#DejaVuSans-35" x="159.033203"/>
      </g>
     </g>
    </g>
    <g id="xtick_16">
     <g id="line2d_21">
      <g>
       <use xlink:href="#m7b433a1588" x="323.566993" y="168.742957" style="stroke: #000000; stroke-width: 0.8"/>
      </g>
     </g>
     <g id="text_19">
      <!-- 15.0 -->
      <g transform="translate(312.434181 183.341394) scale(0.1 -0.1)">
       <use xlink:href="#DejaVuSans-31"/>
       <use xlink:href="#DejaVuSans-35" x="63.623047"/>
       <use xlink:href="#DejaVuSans-2e" x="127.246094"/>
       <use xlink:href="#DejaVuSans-30" x="159.033203"/>
      </g>
     </g>
    </g>
    <g id="xtick_17">
     <g id="line2d_22">
      <g>
       <use xlink:href="#m7b433a1588" x="365.189371" y="168.742957" style="stroke: #000000; stroke-width: 0.8"/>
      </g>
     </g>
     <g id="text_20">
      <!-- 17.5 -->
      <g transform="translate(354.056558 183.341394) scale(0.1 -0.1)">
       <use xlink:href="#DejaVuSans-31"/>
       <use xlink:href="#DejaVuSans-37" x="63.623047"/>
       <use xlink:href="#DejaVuSans-2e" x="127.246094"/>
       <use xlink:href="#DejaVuSans-35" x="159.033203"/>
      </g>
     </g>
    </g>
    <g id="xtick_18">
     <g id="line2d_23">
      <g>
       <use xlink:href="#m7b433a1588" x="406.811748" y="168.742957" style="stroke: #000000; stroke-width: 0.8"/>
      </g>
     </g>
     <g id="text_21">
      <!-- 20.0 -->
      <g transform="translate(395.678936 183.341394) scale(0.1 -0.1)">
       <use xlink:href="#DejaVuSans-32"/>
       <use xlink:href="#DejaVuSans-30" x="63.623047"/>
       <use xlink:href="#DejaVuSans-2e" x="127.246094"/>
       <use xlink:href="#DejaVuSans-30" x="159.033203"/>
      </g>
     </g>
    </g>
   </g>
   <g id="matplotlib.axis_4">
    <g id="ytick_3">
     <g id="line2d_24">
      <g>
       <use xlink:href="#m2b8bd6d95c" x="57.6" y="159.328841" style="stroke: #000000; stroke-width: 0.8"/>
      </g>
     </g>
     <g id="text_22">
      <!-- 0 -->
      <g transform="translate(44.2375 163.12806) scale(0.1 -0.1)">
       <use xlink:href="#DejaVuSans-30"/>
      </g>
     </g>
    </g>
    <g id="ytick_4">
     <g id="line2d_25">
      <g>
       <use xlink:href="#m2b8bd6d95c" x="57.6" y="111.121066" style="stroke: #000000; stroke-width: 0.8"/>
      </g>
     </g>
     <g id="text_23">
      <!-- 2 -->
      <g transform="translate(44.2375 114.920285) scale(0.1 -0.1)">
       <use xlink:href="#DejaVuSans-32"/>
      </g>
     </g>
    </g>
    <g id="text_24">
     <!-- 1e32 -->
     <g transform="translate(57.6 107.892522) scale(0.1 -0.1)">
      <use xlink:href="#DejaVuSans-31"/>
      <use xlink:href="#DejaVuSans-65" x="63.623047"/>
      <use xlink:href="#DejaVuSans-33" x="125.146484"/>
      <use xlink:href="#DejaVuSans-32" x="188.769531"/>
     </g>
    </g>
   </g>
   <g id="line2d_26">
    <path d="M 73.832727 159.328841 
L 82.157203 159.328841 
L 90.481678 159.328841 
L 98.806154 159.328841 
L 107.130629 159.328841 
L 115.455105 159.328841 
L 123.77958 159.328841 
L 132.104056 159.328841 
L 140.428531 159.328841 
L 148.753007 159.328841 
L 157.077483 159.328841 
L 165.401958 159.328841 
L 173.726434 159.328841 
L 182.050909 159.328841 
L 190.375385 159.328841 
L 198.69986 159.328841 
L 207.024336 159.328841 
L 215.348811 159.328841 
L 223.673287 159.328841 
L 231.997762 159.328841 
L 240.322238 159.328841 
L 248.646713 159.328841 
L 256.971189 159.328841 
L 265.295664 159.328841 
L 273.62014 159.328841 
L 281.944615 159.328841 
L 290.269091 159.328841 
L 298.593566 159.328841 
L 306.918042 159.328841 
L 315.242517 159.328841 
L 323.566993 159.328843 
L 331.891469 159.32883 
L 340.215944 159.328913 
L 348.54042 159.328358 
L 356.864895 159.332106 
L 365.189371 159.306797 
L 373.513846 159.477676 
L 381.838322 158.323965 
L 390.162797 166.113391 
L 398.487273 113.522087 
" clip-path="url(#p324a98fdc9)" style="fill: none; stroke: #ff69b4; stroke-width: 1.5; stroke-linecap: square"/>
   </g>
   <g id="line2d_27">
    <path d="M 73.832727 159.328841 
L 82.157203 159.328841 
L 90.481678 159.328841 
L 98.806154 159.328841 
L 107.130629 159.328841 
L 115.455105 159.328841 
L 123.77958 159.328841 
L 132.104056 159.328841 
L 140.428531 159.328841 
L 148.753007 159.328841 
L 157.077483 159.328841 
L 165.401958 159.328841 
L 173.726434 159.328841 
L 182.050909 159.328841 
L 190.375385 159.328841 
L 198.69986 159.328841 
L 207.024336 159.328841 
L 215.348811 159.328841 
L 223.673287 159.328841 
L 231.997762 159.328841 
L 240.322238 159.328841 
L 248.646713 159.328841 
L 256.971189 159.328841 
L 265.295664 159.328841 
L 273.62014 159.328841 
L 281.944615 159.328841 
L 290.269091 159.328841 
L 298.593566 159.328841 
L 306.918042 159.328841 
L 315.242517 159.328841 
L 323.566993 159.328841 
L 331.891469 159.328841 
L 340.215944 159.328841 
L 348.54042 159.328841 
L 356.864895 159.328841 
L 365.189371 159.328841 
L 373.513846 159.328841 
L 381.838322 159.328841 
L 390.162797 159.328841 
L 398.487273 159.328841 
" clip-path="url(#p324a98fdc9)" style="fill: none; stroke: #0000cd; stroke-width: 1.5; stroke-linecap: square"/>
   </g>
   <g id="line2d_28">
    <path d="M 73.832727 159.328841 
L 82.157203 159.328841 
L 90.481678 159.328841 
L 98.806154 159.328841 
L 107.130629 159.328841 
L 115.455105 159.328841 
L 123.77958 159.328841 
L 132.104056 159.328841 
L 140.428531 159.328841 
L 148.753007 159.328841 
L 157.077483 159.328841 
L 165.401958 159.328841 
L 173.726434 159.328841 
L 182.050909 159.328841 
L 190.375385 159.328841 
L 198.69986 159.328841 
L 207.024336 159.328841 
L 215.348811 159.328841 
L 223.673287 159.328841 
L 231.997762 159.328841 
L 240.322238 159.328841 
L 248.646713 159.328841 
L 256.971189 159.328841 
L 265.295664 159.328841 
L 273.62014 159.328841 
L 281.944615 159.328841 
L 290.269091 159.328841 
L 298.593566 159.328841 
L 306.918042 159.328841 
L 315.242517 159.328841 
L 323.566993 159.32884 
L 331.891469 159.32883 
L 340.215944 159.328769 
L 348.54042 159.328358 
L 356.864895 159.325576 
L 365.189371 159.306797 
L 373.513846 159.180006 
L 381.838322 158.323965 
L 390.162797 152.544291 
L 398.487273 113.522087 
" clip-path="url(#p324a98fdc9)" style="fill: none; stroke: #008000; stroke-width: 1.5; stroke-linecap: square"/>
   </g>
   <g id="patch_8">
    <path d="M 57.6 168.742957 
L 57.6 110.892522 
" style="fill: none; stroke: #000000; stroke-width: 0.8; stroke-linejoin: miter; stroke-linecap: square"/>
   </g>
   <g id="patch_9">
    <path d="M 414.72 168.742957 
L 414.72 110.892522 
" style="fill: none; stroke: #000000; stroke-width: 0.8; stroke-linejoin: miter; stroke-linecap: square"/>
   </g>
   <g id="patch_10">
    <path d="M 57.6 168.742957 
L 414.72 168.742957 
" style="fill: none; stroke: #000000; stroke-width: 0.8; stroke-linejoin: miter; stroke-linecap: square"/>
   </g>
   <g id="patch_11">
    <path d="M 57.6 110.892522 
L 414.72 110.892522 
" style="fill: none; stroke: #000000; stroke-width: 0.8; stroke-linejoin: miter; stroke-linecap: square"/>
   </g>
  </g>
  <g id="axes_3">
   <g id="patch_12">
    <path d="M 57.6 238.163478 
L 414.72 238.163478 
L 414.72 180.313043 
L 57.6 180.313043 
z
" style="fill: #ffffff"/>
   </g>
   <g id="PolyCollection_5">
    <defs>
     <path id="m40adc8a271" d="M 73.832727 -138.261459 
L 73.832727 -138.261459 
L 82.157203 -141.067689 
L 90.481678 -140.297014 
L 98.806154 -136.340169 
L 107.130629 -131.203278 
L 115.455105 -127.490752 
L 123.77958 -127.084847 
L 132.104056 -130.191357 
L 140.428531 -135.235277 
L 148.753007 -139.659334 
L 157.077483 -141.220524 
L 165.401958 -139.127322 
L 173.726434 -134.440985 
L 182.050909 -129.53749 
L 190.375385 -126.902918 
L 198.69986 -127.872998 
L 207.024336 -131.9559 
L 215.348811 -137.081587 
L 223.673287 -140.651328 
L 231.997762 -140.85526 
L 240.322238 -137.58999 
L 248.646713 -132.511013 
L 256.971189 -128.193378 
L 265.295664 -126.826131 
L 273.62014 -129.102469 
L 281.944615 -133.868284 
L 290.269091 -138.707303 
L 298.593566 -141.166136 
L 306.918042 -139.998152 
L 315.242517 -135.79552 
L 323.566993 -130.688981 
L 331.891469 -127.267555 
L 340.215944 -127.265911 
L 348.54042 -130.684883 
L 356.864895 -135.791046 
L 365.189371 -139.99557 
L 373.513846 -141.166755 
L 381.838322 -138.710809 
L 390.162797 -133.8729 
L 398.487273 -129.105854 
L 398.487273 -124.90759 
L 398.487273 -124.90759 
L 390.162797 -110.384567 
L 381.838322 -110.066087 
L 373.513846 -123.198706 
L 365.189371 -141.534505 
L 356.864895 -154.448616 
L 348.54042 -155.054045 
L 340.215944 -143.818902 
L 331.891469 -127.821248 
L 323.566993 -116.34571 
L 315.242517 -115.5315 
L 306.918042 -125.135695 
L 298.593566 -139.088254 
L 290.269091 -149.278696 
L 281.944615 -150.238673 
L 273.62014 -142.035466 
L 265.295664 -129.871025 
L 256.971189 -120.827578 
L 248.646713 -119.772262 
L 240.322238 -126.772782 
L 231.997762 -137.374368 
L 223.673287 -145.394934 
L 215.348811 -146.505584 
L 207.024336 -140.53683 
L 198.69986 -131.300718 
L 190.375385 -124.191623 
L 182.050909 -123.057041 
L 173.726434 -128.141262 
L 165.401958 -136.184791 
L 157.077483 -142.482315 
L 148.753007 -143.616498 
L 140.428531 -139.290047 
L 132.104056 -132.287721 
L 123.77958 -126.712286 
L 115.455105 -125.597042 
L 107.130629 -129.274797 
L 98.806154 -135.368417 
L 90.481678 -140.301834 
L 82.157203 -141.384319 
L 73.832727 -138.261459 
z
" style="stroke: #00ffff; stroke-opacity: 0.25"/>
    </defs>
    <g clip-path="url(#pb708e47397)">
     <use xlink:href="#m40adc8a271" x="0" y="345.6" style="fill: #00ffff; fill-opacity: 0.25; stroke: #00ffff; stroke-opacity: 0.25"/>
    </g>
   </g>
   <g id="PolyCollection_6">
    <defs>
     <path id="mfa1cedd5af" d="M 73.832727 -134.012669 
L 73.832727 -134.012669 
L 82.157203 -134.329299 
L 90.481678 -134.017488 
L 98.806154 -134.984421 
L 107.130629 -135.941149 
L 115.455105 -135.906379 
L 123.77958 -134.385229 
L 132.104056 -136.109033 
L 140.428531 -138.067439 
L 148.753007 -137.969833 
L 157.077483 -135.27446 
L 165.401958 -136.9552 
L 173.726434 -140.312392 
L 182.050909 -140.493119 
L 190.375385 -136.723964 
L 198.69986 -137.440389 
L 207.024336 -142.593599 
L 215.348811 -143.436667 
L 223.673287 -138.756275 
L 231.997762 -137.493561 
L 240.322238 -144.829876 
L 248.646713 -146.751421 
L 256.971189 -141.37847 
L 265.295664 -137.057563 
L 273.62014 -146.945667 
L 281.944615 -150.383058 
L 290.269091 -144.584062 
L 298.593566 -136.090552 
L 306.918042 -148.875126 
L 315.242517 -154.27669 
L 323.566993 -148.35594 
L 331.891469 -134.566362 
L 340.215944 -150.565659 
L 348.54042 -158.381831 
L 356.864895 -152.670239 
L 365.189371 -135.551604 
L 373.513846 -151.980718 
L 381.838322 -162.657391 
L 390.162797 -157.501002 
L 398.487273 -138.210933 
L 398.487273 -134.012669 
L 398.487273 -134.012669 
L 390.162797 -134.012669 
L 381.838322 -134.012669 
L 373.513846 -134.012669 
L 365.189371 -134.012669 
L 356.864895 -134.012669 
L 348.54042 -134.012669 
L 340.215944 -134.012669 
L 331.891469 -134.012669 
L 323.566993 -134.012669 
L 315.242517 -134.012669 
L 306.918042 -134.012669 
L 298.593566 -134.012669 
L 290.269091 -134.012669 
L 281.944615 -134.012669 
L 273.62014 -134.012669 
L 265.295664 -134.012669 
L 256.971189 -134.012669 
L 248.646713 -134.012669 
L 240.322238 -134.012669 
L 231.997762 -134.012669 
L 223.673287 -134.012669 
L 215.348811 -134.012669 
L 207.024336 -134.012669 
L 198.69986 -134.012669 
L 190.375385 -134.012669 
L 182.050909 -134.012669 
L 173.726434 -134.012669 
L 165.401958 -134.012669 
L 157.077483 -134.012669 
L 148.753007 -134.012669 
L 140.428531 -134.012669 
L 132.104056 -134.012669 
L 123.77958 -134.012669 
L 115.455105 -134.012669 
L 107.130629 -134.012669 
L 98.806154 -134.012669 
L 90.481678 -134.012669 
L 82.157203 -134.012669 
L 73.832727 -134.012669 
z
" style="stroke: #008000; stroke-opacity: 0.25"/>
    </defs>
    <g clip-path="url(#pb708e47397)">
     <use xlink:href="#mfa1cedd5af" x="0" y="345.6" style="fill: #008000; fill-opacity: 0.25; stroke: #008000; stroke-opacity: 0.25"/>
    </g>
   </g>
   <g id="matplotlib.axis_5">
    <g id="xtick_19">
     <g id="line2d_29">
      <g>
       <use xlink:href="#m7b433a1588" x="73.832727" y="238.163478" style="stroke: #000000; stroke-width: 0.8"/>
      </g>
     </g>
     <g id="text_25">
      <!-- 0.0 -->
      <g transform="translate(65.881165 252.761916) scale(0.1 -0.1)">
       <use xlink:href="#DejaVuSans-30"/>
       <use xlink:href="#DejaVuSans-2e" x="63.623047"/>
       <use xlink:href="#DejaVuSans-30" x="95.410156"/>
      </g>
     </g>
    </g>
    <g id="xtick_20">
     <g id="line2d_30">
      <g>
       <use xlink:href="#m7b433a1588" x="115.455105" y="238.163478" style="stroke: #000000; stroke-width: 0.8"/>
      </g>
     </g>
     <g id="text_26">
      <!-- 2.5 -->
      <g transform="translate(107.503542 252.761916) scale(0.1 -0.1)">
       <use xlink:href="#DejaVuSans-32"/>
       <use xlink:href="#DejaVuSans-2e" x="63.623047"/>
       <use xlink:href="#DejaVuSans-35" x="95.410156"/>
      </g>
     </g>
    </g>
    <g id="xtick_21">
     <g id="line2d_31">
      <g>
       <use xlink:href="#m7b433a1588" x="157.077483" y="238.163478" style="stroke: #000000; stroke-width: 0.8"/>
      </g>
     </g>
     <g id="text_27">
      <!-- 5.0 -->
      <g transform="translate(149.12592 252.761916) scale(0.1 -0.1)">
       <use xlink:href="#DejaVuSans-35"/>
       <use xlink:href="#DejaVuSans-2e" x="63.623047"/>
       <use xlink:href="#DejaVuSans-30" x="95.410156"/>
      </g>
     </g>
    </g>
    <g id="xtick_22">
     <g id="line2d_32">
      <g>
       <use xlink:href="#m7b433a1588" x="198.69986" y="238.163478" style="stroke: #000000; stroke-width: 0.8"/>
      </g>
     </g>
     <g id="text_28">
      <!-- 7.5 -->
      <g transform="translate(190.748298 252.761916) scale(0.1 -0.1)">
       <use xlink:href="#DejaVuSans-37"/>
       <use xlink:href="#DejaVuSans-2e" x="63.623047"/>
       <use xlink:href="#DejaVuSans-35" x="95.410156"/>
      </g>
     </g>
    </g>
    <g id="xtick_23">
     <g id="line2d_33">
      <g>
       <use xlink:href="#m7b433a1588" x="240.322238" y="238.163478" style="stroke: #000000; stroke-width: 0.8"/>
      </g>
     </g>
     <g id="text_29">
      <!-- 10.0 -->
      <g transform="translate(229.189425 252.761916) scale(0.1 -0.1)">
       <use xlink:href="#DejaVuSans-31"/>
       <use xlink:href="#DejaVuSans-30" x="63.623047"/>
       <use xlink:href="#DejaVuSans-2e" x="127.246094"/>
       <use xlink:href="#DejaVuSans-30" x="159.033203"/>
      </g>
     </g>
    </g>
    <g id="xtick_24">
     <g id="line2d_34">
      <g>
       <use xlink:href="#m7b433a1588" x="281.944615" y="238.163478" style="stroke: #000000; stroke-width: 0.8"/>
      </g>
     </g>
     <g id="text_30">
      <!-- 12.5 -->
      <g transform="translate(270.811803 252.761916) scale(0.1 -0.1)">
       <use xlink:href="#DejaVuSans-31"/>
       <use xlink:href="#DejaVuSans-32" x="63.623047"/>
       <use xlink:href="#DejaVuSans-2e" x="127.246094"/>
       <use xlink:href="#DejaVuSans-35" x="159.033203"/>
      </g>
     </g>
    </g>
    <g id="xtick_25">
     <g id="line2d_35">
      <g>
       <use xlink:href="#m7b433a1588" x="323.566993" y="238.163478" style="stroke: #000000; stroke-width: 0.8"/>
      </g>
     </g>
     <g id="text_31">
      <!-- 15.0 -->
      <g transform="translate(312.434181 252.761916) scale(0.1 -0.1)">
       <use xlink:href="#DejaVuSans-31"/>
       <use xlink:href="#DejaVuSans-35" x="63.623047"/>
       <use xlink:href="#DejaVuSans-2e" x="127.246094"/>
       <use xlink:href="#DejaVuSans-30" x="159.033203"/>
      </g>
     </g>
    </g>
    <g id="xtick_26">
     <g id="line2d_36">
      <g>
       <use xlink:href="#m7b433a1588" x="365.189371" y="238.163478" style="stroke: #000000; stroke-width: 0.8"/>
      </g>
     </g>
     <g id="text_32">
      <!-- 17.5 -->
      <g transform="translate(354.056558 252.761916) scale(0.1 -0.1)">
       <use xlink:href="#DejaVuSans-31"/>
       <use xlink:href="#DejaVuSans-37" x="63.623047"/>
       <use xlink:href="#DejaVuSans-2e" x="127.246094"/>
       <use xlink:href="#DejaVuSans-35" x="159.033203"/>
      </g>
     </g>
    </g>
    <g id="xtick_27">
     <g id="line2d_37">
      <g>
       <use xlink:href="#m7b433a1588" x="406.811748" y="238.163478" style="stroke: #000000; stroke-width: 0.8"/>
      </g>
     </g>
     <g id="text_33">
      <!-- 20.0 -->
      <g transform="translate(395.678936 252.761916) scale(0.1 -0.1)">
       <use xlink:href="#DejaVuSans-32"/>
       <use xlink:href="#DejaVuSans-30" x="63.623047"/>
       <use xlink:href="#DejaVuSans-2e" x="127.246094"/>
       <use xlink:href="#DejaVuSans-30" x="159.033203"/>
      </g>
     </g>
    </g>
   </g>
   <g id="matplotlib.axis_6">
    <g id="ytick_5">
     <g id="line2d_38">
      <g>
       <use xlink:href="#m2b8bd6d95c" x="57.6" y="232.831279" style="stroke: #000000; stroke-width: 0.8"/>
      </g>
     </g>
     <g id="text_34">
      <!-- −5 -->
      <g transform="translate(35.857813 236.630498) scale(0.1 -0.1)">
       <defs>
        <path id="DejaVuSans-2212" d="M 678 2272 
L 4684 2272 
L 4684 1741 
L 678 1741 
L 678 2272 
z
" transform="scale(0.015625)"/>
       </defs>
       <use xlink:href="#DejaVuSans-2212"/>
       <use xlink:href="#DejaVuSans-35" x="83.789062"/>
      </g>
     </g>
    </g>
    <g id="ytick_6">
     <g id="line2d_39">
      <g>
       <use xlink:href="#m2b8bd6d95c" x="57.6" y="211.587331" style="stroke: #000000; stroke-width: 0.8"/>
      </g>
     </g>
     <g id="text_35">
      <!-- 0 -->
      <g transform="translate(44.2375 215.38655) scale(0.1 -0.1)">
       <use xlink:href="#DejaVuSans-30"/>
      </g>
     </g>
    </g>
    <g id="ytick_7">
     <g id="line2d_40">
      <g>
       <use xlink:href="#m2b8bd6d95c" x="57.6" y="190.343383" style="stroke: #000000; stroke-width: 0.8"/>
      </g>
     </g>
     <g id="text_36">
      <!-- 5 -->
      <g transform="translate(44.2375 194.142602) scale(0.1 -0.1)">
       <use xlink:href="#DejaVuSans-35"/>
      </g>
     </g>
    </g>
   </g>
   <g id="line2d_41">
    <path d="M 73.832727 207.338541 
L 82.157203 204.215681 
L 90.481678 205.298166 
L 98.806154 210.231583 
L 107.130629 216.325203 
L 115.455105 220.002958 
L 123.77958 218.887714 
L 132.104056 213.312279 
L 140.428531 206.309953 
L 148.753007 201.983502 
L 157.077483 203.117685 
L 165.401958 209.415209 
L 173.726434 217.458738 
L 182.050909 222.542959 
L 190.375385 221.408377 
L 198.69986 214.299282 
L 207.024336 205.06317 
L 215.348811 199.094416 
L 223.673287 200.205066 
L 231.997762 208.225632 
L 240.322238 218.827218 
L 248.646713 225.827738 
L 256.971189 224.772422 
L 265.295664 215.728975 
L 273.62014 203.564534 
L 281.944615 195.361327 
L 290.269091 196.321304 
L 298.593566 206.511746 
L 306.918042 220.464305 
L 315.242517 230.0685 
L 323.566993 229.25429 
L 331.891469 217.778752 
L 340.215944 201.781098 
L 348.54042 190.545955 
L 356.864895 191.151384 
L 365.189371 204.065495 
L 373.513846 222.401294 
L 381.838322 235.533913 
L 390.162797 235.215433 
L 398.487273 220.69241 
" clip-path="url(#pb708e47397)" style="fill: none; stroke: #ff69b4; stroke-width: 1.5; stroke-linecap: square"/>
   </g>
   <g id="line2d_42">
    <path d="M 73.832727 207.338541 
L 82.157203 204.532311 
L 90.481678 205.302986 
L 98.806154 209.259831 
L 107.130629 214.396722 
L 115.455105 218.109248 
L 123.77958 218.515153 
L 132.104056 215.408643 
L 140.428531 210.364723 
L 148.753007 205.940666 
L 157.077483 204.379476 
L 165.401958 206.472678 
L 173.726434 211.159015 
L 182.050909 216.06251 
L 190.375385 218.697082 
L 198.69986 217.727002 
L 207.024336 213.6441 
L 215.348811 208.518413 
L 223.673287 204.948672 
L 231.997762 204.74474 
L 240.322238 208.01001 
L 248.646713 213.088987 
L 256.971189 217.406622 
L 265.295664 218.773869 
L 273.62014 216.497531 
L 281.944615 211.731716 
L 290.269091 206.892697 
L 298.593566 204.433864 
L 306.918042 205.601848 
L 315.242517 209.80448 
L 323.566993 214.911019 
L 331.891469 218.332445 
L 340.215944 218.334089 
L 348.54042 214.915117 
L 356.864895 209.808954 
L 365.189371 205.60443 
L 373.513846 204.433245 
L 381.838322 206.889191 
L 390.162797 211.7271 
L 398.487273 216.494146 
" clip-path="url(#pb708e47397)" style="fill: none; stroke: #0000cd; stroke-width: 1.5; stroke-linecap: square"/>
   </g>
   <g id="line2d_43">
    <path d="M 73.832727 211.587331 
L 82.157203 211.270701 
L 90.481678 211.582512 
L 98.806154 210.615579 
L 107.130629 209.658851 
L 115.455105 209.693621 
L 123.77958 211.214771 
L 132.104056 209.490967 
L 140.428531 207.532561 
L 148.753007 207.630167 
L 157.077483 210.32554 
L 165.401958 208.6448 
L 173.726434 205.287608 
L 182.050909 205.106881 
L 190.375385 208.876036 
L 198.69986 208.159611 
L 207.024336 203.006401 
L 215.348811 202.163333 
L 223.673287 206.843725 
L 231.997762 208.106439 
L 240.322238 200.770124 
L 248.646713 198.848579 
L 256.971189 204.22153 
L 265.295664 208.542437 
L 273.62014 198.654333 
L 281.944615 195.216942 
L 290.269091 201.015938 
L 298.593566 209.509448 
L 306.918042 196.724874 
L 315.242517 191.32331 
L 323.566993 197.24406 
L 331.891469 211.033638 
L 340.215944 195.034341 
L 348.54042 187.218169 
L 356.864895 192.929761 
L 365.189371 210.048396 
L 373.513846 193.619282 
L 381.838322 182.942609 
L 390.162797 188.098998 
L 398.487273 207.389067 
" clip-path="url(#pb708e47397)" style="fill: none; stroke: #008000; stroke-width: 1.5; stroke-linecap: square"/>
   </g>
   <g id="patch_13">
    <path d="M 57.6 238.163478 
L 57.6 180.313043 
" style="fill: none; stroke: #000000; stroke-width: 0.8; stroke-linejoin: miter; stroke-linecap: square"/>
   </g>
   <g id="patch_14">
    <path d="M 414.72 238.163478 
L 414.72 180.313043 
" style="fill: none; stroke: #000000; stroke-width: 0.8; stroke-linejoin: miter; stroke-linecap: square"/>
   </g>
   <g id="patch_15">
    <path d="M 57.6 238.163478 
L 414.72 238.163478 
" style="fill: none; stroke: #000000; stroke-width: 0.8; stroke-linejoin: miter; stroke-linecap: square"/>
   </g>
   <g id="patch_16">
    <path d="M 57.6 180.313043 
L 414.72 180.313043 
" style="fill: none; stroke: #000000; stroke-width: 0.8; stroke-linejoin: miter; stroke-linecap: square"/>
   </g>
  </g>
  <g id="axes_4">
   <g id="patch_17">
    <path d="M 57.6 307.584 
L 414.72 307.584 
L 414.72 249.733565 
L 57.6 249.733565 
z
" style="fill: #ffffff"/>
   </g>
   <g id="PolyCollection_7">
    <defs>
     <path id="ma37e045920" d="M 73.832727 -68.630016 
L 73.832727 -68.630016 
L 82.157203 -72.41116 
L 90.481678 -72.982629 
L 98.806154 -70.054687 
L 107.130629 -65.111805 
L 115.455105 -60.660031 
L 123.77958 -58.956419 
L 132.104056 -60.864703 
L 140.428531 -65.417382 
L 148.753007 -70.306239 
L 157.077483 -73.052619 
L 165.401958 -72.264104 
L 173.726434 -68.34047 
L 182.050909 -63.271007 
L 190.375385 -59.625938 
L 198.69986 -59.253318 
L 207.024336 -62.342067 
L 215.348811 -67.326183 
L 223.673287 -71.678715 
L 231.997762 -73.192922 
L 240.322238 -71.101099 
L 248.646713 -66.463804 
L 256.971189 -61.632151 
L 265.295664 -59.055795 
L 273.62014 -60.040951 
L 281.944615 -64.088144 
L 290.269091 -69.145443 
L 298.593566 -72.648789 
L 306.918042 -72.821981 
L 315.242517 -69.577212 
L 323.566993 -64.559583 
L 331.891469 -60.313038 
L 340.215944 -58.990582 
L 348.54042 -61.262702 
L 356.864895 -65.977429 
L 365.189371 -70.744391 
L 373.513846 -73.146732 
L 381.838322 -71.966462 
L 390.162797 -67.801979 
L 398.487273 -62.764681 
L 398.487273 -50.839149 
L 398.487273 -50.839149 
L 390.162797 -40.645565 
L 381.838322 -45.385759 
L 373.513846 -61.421329 
L 365.189371 -79.017718 
L 356.864895 -88.203749 
L 348.54042 -84.379393 
L 340.215944 -70.543203 
L 331.891469 -55.112017 
L 323.566993 -46.844918 
L 315.242517 -49.908342 
L 306.918042 -61.840721 
L 298.593566 -75.367946 
L 290.269091 -82.798758 
L 281.944615 -80.36569 
L 273.62014 -70.080542 
L 265.295664 -58.226866 
L 256.971189 -51.555601 
L 248.646713 -53.468205 
L 240.322238 -62.328764 
L 231.997762 -72.712019 
L 223.673287 -78.694709 
L 215.348811 -77.210255 
L 207.024336 -69.58117 
L 198.69986 -60.489343 
L 190.375385 -55.129814 
L 182.050909 -56.26352 
L 173.726434 -62.828566 
L 165.401958 -70.786623 
L 157.077483 -75.583089 
L 148.753007 -74.735369 
L 140.428531 -69.089252 
L 132.104056 -62.126163 
L 123.77958 -57.837698 
L 115.455105 -58.453497 
L 107.130629 -63.306394 
L 98.806154 -69.396663 
L 90.481678 -73.227445 
L 82.157203 -72.798545 
L 73.832727 -68.630016 
z
" style="stroke: #00ffff; stroke-opacity: 0.25"/>
    </defs>
    <g clip-path="url(#p794059cb64)">
     <use xlink:href="#ma37e045920" x="0" y="345.6" style="fill: #00ffff; fill-opacity: 0.25; stroke: #00ffff; stroke-opacity: 0.25"/>
    </g>
   </g>
   <g id="PolyCollection_8">
    <defs>
     <path id="me16baddc39" d="M 73.832727 -66.080456 
L 73.832727 -66.080456 
L 82.157203 -66.467842 
L 90.481678 -66.325272 
L 98.806154 -66.738481 
L 107.130629 -67.885868 
L 115.455105 -68.286989 
L 123.77958 -67.199177 
L 132.104056 -67.341916 
L 140.428531 -69.752326 
L 148.753007 -70.509585 
L 157.077483 -68.610926 
L 165.401958 -67.557936 
L 173.726434 -71.59236 
L 182.050909 -73.087943 
L 190.375385 -70.57658 
L 198.69986 -67.316481 
L 207.024336 -73.31956 
L 215.348811 -75.964528 
L 223.673287 -73.09645 
L 231.997762 -66.561359 
L 240.322238 -74.852791 
L 248.646713 -79.076055 
L 256.971189 -76.157006 
L 265.295664 -66.909384 
L 273.62014 -76.120047 
L 281.944615 -82.358002 
L 290.269091 -79.733772 
L 298.593566 -68.799614 
L 306.918042 -77.061716 
L 315.242517 -85.749326 
L 323.566993 -83.79512 
L 331.891469 -71.281478 
L 340.215944 -77.633077 
L 348.54042 -89.197147 
L 356.864895 -88.306776 
L 365.189371 -74.353783 
L 373.513846 -77.805859 
L 381.838322 -92.661159 
L 390.162797 -93.23687 
L 398.487273 -78.005989 
L 398.487273 -66.080456 
L 398.487273 -66.080456 
L 390.162797 -66.080456 
L 381.838322 -66.080456 
L 373.513846 -66.080456 
L 365.189371 -66.080456 
L 356.864895 -66.080456 
L 348.54042 -66.080456 
L 340.215944 -66.080456 
L 331.891469 -66.080456 
L 323.566993 -66.080456 
L 315.242517 -66.080456 
L 306.918042 -66.080456 
L 298.593566 -66.080456 
L 290.269091 -66.080456 
L 281.944615 -66.080456 
L 273.62014 -66.080456 
L 265.295664 -66.080456 
L 256.971189 -66.080456 
L 248.646713 -66.080456 
L 240.322238 -66.080456 
L 231.997762 -66.080456 
L 223.673287 -66.080456 
L 215.348811 -66.080456 
L 207.024336 -66.080456 
L 198.69986 -66.080456 
L 190.375385 -66.080456 
L 182.050909 -66.080456 
L 173.726434 -66.080456 
L 165.401958 -66.080456 
L 157.077483 -66.080456 
L 148.753007 -66.080456 
L 140.428531 -66.080456 
L 132.104056 -66.080456 
L 123.77958 -66.080456 
L 115.455105 -66.080456 
L 107.130629 -66.080456 
L 98.806154 -66.080456 
L 90.481678 -66.080456 
L 82.157203 -66.080456 
L 73.832727 -66.080456 
z
" style="stroke: #008000; stroke-opacity: 0.25"/>
    </defs>
    <g clip-path="url(#p794059cb64)">
     <use xlink:href="#me16baddc39" x="0" y="345.6" style="fill: #008000; fill-opacity: 0.25; stroke: #008000; stroke-opacity: 0.25"/>
    </g>
   </g>
   <g id="matplotlib.axis_7">
    <g id="xtick_28">
     <g id="line2d_44">
      <g>
       <use xlink:href="#m7b433a1588" x="73.832727" y="307.584" style="stroke: #000000; stroke-width: 0.8"/>
      </g>
     </g>
     <g id="text_37">
      <!-- 0.0 -->
      <g transform="translate(65.881165 322.182437) scale(0.1 -0.1)">
       <use xlink:href="#DejaVuSans-30"/>
       <use xlink:href="#DejaVuSans-2e" x="63.623047"/>
       <use xlink:href="#DejaVuSans-30" x="95.410156"/>
      </g>
     </g>
    </g>
    <g id="xtick_29">
     <g id="line2d_45">
      <g>
       <use xlink:href="#m7b433a1588" x="115.455105" y="307.584" style="stroke: #000000; stroke-width: 0.8"/>
      </g>
     </g>
     <g id="text_38">
      <!-- 2.5 -->
      <g transform="translate(107.503542 322.182437) scale(0.1 -0.1)">
       <use xlink:href="#DejaVuSans-32"/>
       <use xlink:href="#DejaVuSans-2e" x="63.623047"/>
       <use xlink:href="#DejaVuSans-35" x="95.410156"/>
      </g>
     </g>
    </g>
    <g id="xtick_30">
     <g id="line2d_46">
      <g>
       <use xlink:href="#m7b433a1588" x="157.077483" y="307.584" style="stroke: #000000; stroke-width: 0.8"/>
      </g>
     </g>
     <g id="text_39">
      <!-- 5.0 -->
      <g transform="translate(149.12592 322.182437) scale(0.1 -0.1)">
       <use xlink:href="#DejaVuSans-35"/>
       <use xlink:href="#DejaVuSans-2e" x="63.623047"/>
       <use xlink:href="#DejaVuSans-30" x="95.410156"/>
      </g>
     </g>
    </g>
    <g id="xtick_31">
     <g id="line2d_47">
      <g>
       <use xlink:href="#m7b433a1588" x="198.69986" y="307.584" style="stroke: #000000; stroke-width: 0.8"/>
      </g>
     </g>
     <g id="text_40">
      <!-- 7.5 -->
      <g transform="translate(190.748298 322.182437) scale(0.1 -0.1)">
       <use xlink:href="#DejaVuSans-37"/>
       <use xlink:href="#DejaVuSans-2e" x="63.623047"/>
       <use xlink:href="#DejaVuSans-35" x="95.410156"/>
      </g>
     </g>
    </g>
    <g id="xtick_32">
     <g id="line2d_48">
      <g>
       <use xlink:href="#m7b433a1588" x="240.322238" y="307.584" style="stroke: #000000; stroke-width: 0.8"/>
      </g>
     </g>
     <g id="text_41">
      <!-- 10.0 -->
      <g transform="translate(229.189425 322.182437) scale(0.1 -0.1)">
       <use xlink:href="#DejaVuSans-31"/>
       <use xlink:href="#DejaVuSans-30" x="63.623047"/>
       <use xlink:href="#DejaVuSans-2e" x="127.246094"/>
       <use xlink:href="#DejaVuSans-30" x="159.033203"/>
      </g>
     </g>
    </g>
    <g id="xtick_33">
     <g id="line2d_49">
      <g>
       <use xlink:href="#m7b433a1588" x="281.944615" y="307.584" style="stroke: #000000; stroke-width: 0.8"/>
      </g>
     </g>
     <g id="text_42">
      <!-- 12.5 -->
      <g transform="translate(270.811803 322.182437) scale(0.1 -0.1)">
       <use xlink:href="#DejaVuSans-31"/>
       <use xlink:href="#DejaVuSans-32" x="63.623047"/>
       <use xlink:href="#DejaVuSans-2e" x="127.246094"/>
       <use xlink:href="#DejaVuSans-35" x="159.033203"/>
      </g>
     </g>
    </g>
    <g id="xtick_34">
     <g id="line2d_50">
      <g>
       <use xlink:href="#m7b433a1588" x="323.566993" y="307.584" style="stroke: #000000; stroke-width: 0.8"/>
      </g>
     </g>
     <g id="text_43">
      <!-- 15.0 -->
      <g transform="translate(312.434181 322.182437) scale(0.1 -0.1)">
       <use xlink:href="#DejaVuSans-31"/>
       <use xlink:href="#DejaVuSans-35" x="63.623047"/>
       <use xlink:href="#DejaVuSans-2e" x="127.246094"/>
       <use xlink:href="#DejaVuSans-30" x="159.033203"/>
      </g>
     </g>
    </g>
    <g id="xtick_35">
     <g id="line2d_51">
      <g>
       <use xlink:href="#m7b433a1588" x="365.189371" y="307.584" style="stroke: #000000; stroke-width: 0.8"/>
      </g>
     </g>
     <g id="text_44">
      <!-- 17.5 -->
      <g transform="translate(354.056558 322.182437) scale(0.1 -0.1)">
       <use xlink:href="#DejaVuSans-31"/>
       <use xlink:href="#DejaVuSans-37" x="63.623047"/>
       <use xlink:href="#DejaVuSans-2e" x="127.246094"/>
       <use xlink:href="#DejaVuSans-35" x="159.033203"/>
      </g>
     </g>
    </g>
    <g id="xtick_36">
     <g id="line2d_52">
      <g>
       <use xlink:href="#m7b433a1588" x="406.811748" y="307.584" style="stroke: #000000; stroke-width: 0.8"/>
      </g>
     </g>
     <g id="text_45">
      <!-- 20.0 -->
      <g transform="translate(395.678936 322.182437) scale(0.1 -0.1)">
       <use xlink:href="#DejaVuSans-32"/>
       <use xlink:href="#DejaVuSans-30" x="63.623047"/>
       <use xlink:href="#DejaVuSans-2e" x="127.246094"/>
       <use xlink:href="#DejaVuSans-30" x="159.033203"/>
      </g>
     </g>
    </g>
   </g>
   <g id="matplotlib.axis_8">
    <g id="ytick_8">
     <g id="line2d_53">
      <g>
       <use xlink:href="#m2b8bd6d95c" x="57.6" y="305.015138" style="stroke: #000000; stroke-width: 0.8"/>
      </g>
     </g>
     <g id="text_46">
      <!-- −10 -->
      <g transform="translate(29.495313 308.814356) scale(0.1 -0.1)">
       <use xlink:href="#DejaVuSans-2212"/>
       <use xlink:href="#DejaVuSans-31" x="83.789062"/>
       <use xlink:href="#DejaVuSans-30" x="147.412109"/>
      </g>
     </g>
    </g>
    <g id="ytick_9">
     <g id="line2d_54">
      <g>
       <use xlink:href="#m2b8bd6d95c" x="57.6" y="279.519544" style="stroke: #000000; stroke-width: 0.8"/>
      </g>
     </g>
     <g id="text_47">
      <!-- 0 -->
      <g transform="translate(44.2375 283.318763) scale(0.1 -0.1)">
       <use xlink:href="#DejaVuSans-30"/>
      </g>
     </g>
    </g>
    <g id="ytick_10">
     <g id="line2d_55">
      <g>
       <use xlink:href="#m2b8bd6d95c" x="57.6" y="254.02395" style="stroke: #000000; stroke-width: 0.8"/>
      </g>
     </g>
     <g id="text_48">
      <!-- 10 -->
      <g transform="translate(37.875 257.823169) scale(0.1 -0.1)">
       <use xlink:href="#DejaVuSans-31"/>
       <use xlink:href="#DejaVuSans-30" x="63.623047"/>
      </g>
     </g>
    </g>
   </g>
   <g id="line2d_56">
    <path d="M 73.832727 276.969984 
L 82.157203 272.801455 
L 90.481678 272.372555 
L 98.806154 276.203337 
L 107.130629 282.293606 
L 115.455105 287.146503 
L 123.77958 287.762302 
L 132.104056 283.473837 
L 140.428531 276.510748 
L 148.753007 270.864631 
L 157.077483 270.016911 
L 165.401958 274.813377 
L 173.726434 282.771434 
L 182.050909 289.33648 
L 190.375385 290.470186 
L 198.69986 285.110657 
L 207.024336 276.01883 
L 215.348811 268.389745 
L 223.673287 266.905291 
L 231.997762 272.887981 
L 240.322238 283.271236 
L 248.646713 292.131795 
L 256.971189 294.044399 
L 265.295664 287.373134 
L 273.62014 275.519458 
L 281.944615 265.23431 
L 290.269091 262.801242 
L 298.593566 270.232054 
L 306.918042 283.759279 
L 315.242517 295.691658 
L 323.566993 298.755082 
L 331.891469 290.487983 
L 340.215944 275.056797 
L 348.54042 261.220607 
L 356.864895 257.396251 
L 365.189371 266.582282 
L 373.513846 284.178671 
L 381.838322 300.214241 
L 390.162797 304.954435 
L 398.487273 294.760851 
" clip-path="url(#p794059cb64)" style="fill: none; stroke: #ff69b4; stroke-width: 1.5; stroke-linecap: square"/>
   </g>
   <g id="line2d_57">
    <path d="M 73.832727 276.969984 
L 82.157203 273.18884 
L 90.481678 272.617371 
L 98.806154 275.545313 
L 107.130629 280.488195 
L 115.455105 284.939969 
L 123.77958 286.643581 
L 132.104056 284.735297 
L 140.428531 280.182618 
L 148.753007 275.293761 
L 157.077483 272.547381 
L 165.401958 273.335896 
L 173.726434 277.25953 
L 182.050909 282.328993 
L 190.375385 285.974062 
L 198.69986 286.346682 
L 207.024336 283.257933 
L 215.348811 278.273817 
L 223.673287 273.921285 
L 231.997762 272.407078 
L 240.322238 274.498901 
L 248.646713 279.136196 
L 256.971189 283.967849 
L 265.295664 286.544205 
L 273.62014 285.559049 
L 281.944615 281.511856 
L 290.269091 276.454557 
L 298.593566 272.951211 
L 306.918042 272.778019 
L 315.242517 276.022788 
L 323.566993 281.040417 
L 331.891469 285.286962 
L 340.215944 286.609418 
L 348.54042 284.337298 
L 356.864895 279.622571 
L 365.189371 274.855609 
L 373.513846 272.453268 
L 381.838322 273.633538 
L 390.162797 277.798021 
L 398.487273 282.835319 
" clip-path="url(#p794059cb64)" style="fill: none; stroke: #0000cd; stroke-width: 1.5; stroke-linecap: square"/>
   </g>
   <g id="line2d_58">
    <path d="M 73.832727 279.519544 
L 82.157203 279.132158 
L 90.481678 279.274728 
L 98.806154 278.861519 
L 107.130629 277.714132 
L 115.455105 277.313011 
L 123.77958 278.400823 
L 132.104056 278.258084 
L 140.428531 275.847674 
L 148.753007 275.090415 
L 157.077483 276.989074 
L 165.401958 278.042064 
L 173.726434 274.00764 
L 182.050909 272.512057 
L 190.375385 275.02342 
L 198.69986 278.283519 
L 207.024336 272.28044 
L 215.348811 269.635472 
L 223.673287 272.50355 
L 231.997762 279.038641 
L 240.322238 270.747209 
L 248.646713 266.523945 
L 256.971189 269.442994 
L 265.295664 278.690616 
L 273.62014 269.479953 
L 281.944615 263.241998 
L 290.269091 265.866228 
L 298.593566 276.800386 
L 306.918042 268.538284 
L 315.242517 259.850674 
L 323.566993 261.80488 
L 331.891469 274.318522 
L 340.215944 267.966923 
L 348.54042 256.402853 
L 356.864895 257.293224 
L 365.189371 271.246217 
L 373.513846 267.794141 
L 381.838322 252.938841 
L 390.162797 252.36313 
L 398.487273 267.594011 
" clip-path="url(#p794059cb64)" style="fill: none; stroke: #008000; stroke-width: 1.5; stroke-linecap: square"/>
   </g>
   <g id="patch_18">
    <path d="M 57.6 307.584 
L 57.6 249.733565 
" style="fill: none; stroke: #000000; stroke-width: 0.8; stroke-linejoin: miter; stroke-linecap: square"/>
   </g>
   <g id="patch_19">
    <path d="M 414.72 307.584 
L 414.72 249.733565 
" style="fill: none; stroke: #000000; stroke-width: 0.8; stroke-linejoin: miter; stroke-linecap: square"/>
   </g>
   <g id="patch_20">
    <path d="M 57.6 307.584 
L 414.72 307.584 
" style="fill: none; stroke: #000000; stroke-width: 0.8; stroke-linejoin: miter; stroke-linecap: square"/>
   </g>
   <g id="patch_21">
    <path d="M 57.6 249.733565 
L 414.72 249.733565 
" style="fill: none; stroke: #000000; stroke-width: 0.8; stroke-linejoin: miter; stroke-linecap: square"/>
   </g>
  </g>
 </g>
 <defs>
  <clipPath id="pa0cf110e7a">
   <rect x="57.6" y="41.472" width="357.12" height="57.850435"/>
  </clipPath>
  <clipPath id="p324a98fdc9">
   <rect x="57.6" y="110.892522" width="357.12" height="57.850435"/>
  </clipPath>
  <clipPath id="pb708e47397">
   <rect x="57.6" y="180.313043" width="357.12" height="57.850435"/>
  </clipPath>
  <clipPath id="p794059cb64">
   <rect x="57.6" y="249.733565" width="357.12" height="57.850435"/>
  </clipPath>
 </defs>
</svg>
