<?xml version="1.0" encoding="utf-8" standalone="no"?>
<!DOCTYPE svg PUBLIC "-//W3C//DTD SVG 1.1//EN"
  "http://www.w3.org/Graphics/SVG/1.1/DTD/svg11.dtd">
<svg xmlns:xlink="http://www.w3.org/1999/xlink" width="539.2245pt" height="291.336125pt" viewBox="0 0 539.2245 291.336125" xmlns="http://www.w3.org/2000/svg" version="1.1">
 <metadata>
  <rdf:RDF xmlns:dc="http://purl.org/dc/elements/1.1/" xmlns:cc="http://creativecommons.org/ns#" xmlns:rdf="http://www.w3.org/1999/02/22-rdf-syntax-ns#">
   <cc:Work>
    <dc:type rdf:resource="http://purl.org/dc/dcmitype/StillImage"/>
    <dc:date>2022-12-09T11:39:33.985919</dc:date>
    <dc:format>image/svg+xml</dc:format>
    <dc:creator>
     <cc:Agent>
      <dc:title>Matplotlib v3.6.2, https://matplotlib.org/</dc:title>
     </cc:Agent>
    </dc:creator>
   </cc:Work>
  </rdf:RDF>
 </metadata>
 <defs>
  <style type="text/css">*{stroke-linejoin: round; stroke-linecap: butt}</style>
 </defs>
 <g id="figure_1">
  <g id="patch_1">
   <path d="M 0 291.336125 
L 539.2245 291.336125 
L 539.2245 0 
L 0 0 
z
" style="fill: #ffffff"/>
  </g>
  <g id="axes_1">
   <g id="patch_2">
    <path d="M 40.9845 251.136 
L 532.0245 251.136 
L 532.0245 7.2 
L 40.9845 7.2 
z
" style="fill: #ffffff"/>
   </g>
   <g id="matplotlib.axis_1">
    <g id="xtick_1">
     <g id="line2d_1">
      <path d="M 509.7045 251.136 
L 509.7045 7.2 
" clip-path="url(#p39dbeae67a)" style="fill: none; stroke: #b0b0b0; stroke-width: 0.8; stroke-linecap: square"/>
     </g>
     <g id="line2d_2">
      <defs>
       <path id="m315beabd5c" d="M 0 0 
L 0 3.5 
" style="stroke: #000000; stroke-width: 0.8"/>
      </defs>
      <g>
       <use xlink:href="#m315beabd5c" x="509.7045" y="251.136" style="stroke: #000000; stroke-width: 0.8"/>
      </g>
     </g>
     <g id="text_1">
      <!-- 0.5000 -->
      <g transform="translate(495.815438 265.075063) scale(0.1 -0.1)">
       <defs>
        <path id="CMUSerif-Roman-30" d="M 250 2047 
Q 250 2988 488 3500 
Q 819 4263 1600 4263 
Q 1766 4263 1939 4217 
Q 2113 4172 2333 4000 
Q 2553 3828 2688 3547 
Q 2944 3003 2944 2047 
Q 2944 1113 2706 603 
Q 2359 -141 1594 -141 
Q 1306 -141 1014 6 
Q 722 153 538 506 
Q 250 1034 250 2047 
z
M 781 2125 
Q 781 1159 850 775 
Q 928 359 1142 179 
Q 1356 0 1594 0 
Q 1850 0 2064 192 
Q 2278 384 2344 800 
Q 2416 1209 2413 2125 
Q 2413 3016 2350 3372 
Q 2266 3788 2042 3955 
Q 1819 4122 1594 4122 
Q 1509 4122 1420 4097 
Q 1331 4072 1203 4000 
Q 1075 3928 976 3750 
Q 878 3572 831 3303 
Q 781 2956 781 2125 
z
" transform="scale(0.015625)"/>
        <path id="CMUSerif-Roman-2e" d="M 641 103 
Q 544 206 544 340 
Q 544 475 641 573 
Q 738 672 884 672 
Q 1025 672 1120 580 
Q 1216 488 1216 339 
Q 1216 191 1114 95 
Q 1013 0 884 0 
Q 738 0 641 103 
z
" transform="scale(0.015625)"/>
        <path id="CMUSerif-Roman-35" d="M 319 1031 
Q 319 1222 422 1295 
Q 525 1369 634 1369 
Q 781 1369 867 1276 
Q 953 1184 953 1056 
Q 953 928 867 836 
Q 781 744 634 744 
Q 563 744 525 756 
Q 609 463 867 250 
Q 1125 38 1466 38 
Q 1894 38 2150 453 
Q 2303 722 2303 1331 
Q 2303 1869 2188 2138 
Q 2009 2547 1644 2547 
Q 1125 2547 819 2100 
Q 781 2044 738 2041 
Q 675 2041 661 2077 
Q 647 2113 647 2209 
L 647 4103 
Q 647 4256 709 4256 
Q 734 4256 788 4238 
Q 1191 4059 1638 4056 
Q 2097 4056 2509 4244 
Q 2541 4263 2559 4263 
Q 2622 4263 2625 4191 
Q 2625 4166 2573 4092 
Q 2522 4019 2412 3923 
Q 2303 3828 2162 3737 
Q 2022 3647 1817 3586 
Q 1613 3525 1388 3525 
Q 1119 3525 844 3609 
L 844 2363 
Q 1175 2688 1656 2688 
Q 2169 2688 2522 2275 
Q 2875 1863 2875 1288 
Q 2875 684 2458 271 
Q 2041 -141 1478 -141 
Q 966 -141 642 225 
Q 319 591 319 1031 
z
" transform="scale(0.015625)"/>
       </defs>
       <use xlink:href="#CMUSerif-Roman-30"/>
       <use xlink:href="#CMUSerif-Roman-2e" x="50"/>
       <use xlink:href="#CMUSerif-Roman-35" x="77.783203"/>
       <use xlink:href="#CMUSerif-Roman-30" x="127.783203"/>
       <use xlink:href="#CMUSerif-Roman-30" x="177.783203"/>
       <use xlink:href="#CMUSerif-Roman-30" x="227.783203"/>
      </g>
     </g>
    </g>
    <g id="xtick_2">
     <g id="line2d_3">
      <path d="M 460.1045 251.136 
L 460.1045 7.2 
" clip-path="url(#p39dbeae67a)" style="fill: none; stroke: #b0b0b0; stroke-width: 0.8; stroke-linecap: square"/>
     </g>
     <g id="line2d_4">
      <g>
       <use xlink:href="#m315beabd5c" x="460.1045" y="251.136" style="stroke: #000000; stroke-width: 0.8"/>
      </g>
     </g>
     <g id="text_2">
      <!-- 0.2700 -->
      <g transform="translate(446.215438 265.075063) scale(0.1 -0.1)">
       <defs>
        <path id="CMUSerif-Roman-32" d="M 319 0 
Q 319 116 330 150 
Q 341 184 391 238 
L 1619 1606 
Q 2291 2363 2291 3022 
Q 2291 3450 2067 3756 
Q 1844 4063 1434 4063 
Q 1153 4063 915 3891 
Q 678 3719 569 3413 
Q 588 3419 653 3419 
Q 813 3419 902 3319 
Q 991 3219 991 3084 
Q 991 2913 880 2830 
Q 769 2747 659 2747 
Q 616 2747 558 2756 
Q 500 2766 409 2855 
Q 319 2944 319 3103 
Q 319 3550 658 3906 
Q 997 4263 1516 4263 
Q 2103 4263 2489 3914 
Q 2875 3566 2875 3022 
Q 2875 2831 2817 2657 
Q 2759 2484 2682 2350 
Q 2606 2216 2400 2000 
Q 2194 1784 2028 1631 
Q 1863 1478 1491 1153 
L 813 494 
L 1966 494 
Q 2528 494 2572 544 
Q 2634 634 2713 1113 
L 2875 1113 
L 2694 0 
L 319 0 
z
" transform="scale(0.015625)"/>
        <path id="CMUSerif-Roman-37" d="M 359 3009 
L 569 4325 
L 728 4325 
Q 747 4247 780 4212 
Q 813 4178 995 4150 
Q 1178 4122 1550 4122 
L 3103 4122 
Q 3103 3975 3047 3897 
L 2181 2681 
Q 1906 2297 1784 1588 
Q 1713 1113 1716 538 
L 1716 213 
Q 1716 -141 1420 -141 
Q 1125 -141 1125 213 
Q 1125 1434 1913 2619 
Q 1997 2741 2308 3175 
Q 2619 3609 2631 3628 
L 1306 3628 
Q 725 3628 678 3591 
Q 616 3534 519 3009 
L 359 3009 
z
" transform="scale(0.015625)"/>
       </defs>
       <use xlink:href="#CMUSerif-Roman-30"/>
       <use xlink:href="#CMUSerif-Roman-2e" x="50"/>
       <use xlink:href="#CMUSerif-Roman-32" x="77.783203"/>
       <use xlink:href="#CMUSerif-Roman-37" x="127.783203"/>
       <use xlink:href="#CMUSerif-Roman-30" x="177.783203"/>
       <use xlink:href="#CMUSerif-Roman-30" x="227.783203"/>
      </g>
     </g>
    </g>
    <g id="xtick_3">
     <g id="line2d_5">
      <path d="M 410.5045 251.136 
L 410.5045 7.2 
" clip-path="url(#p39dbeae67a)" style="fill: none; stroke: #b0b0b0; stroke-width: 0.8; stroke-linecap: square"/>
     </g>
     <g id="line2d_6">
      <g>
       <use xlink:href="#m315beabd5c" x="410.5045" y="251.136" style="stroke: #000000; stroke-width: 0.8"/>
      </g>
     </g>
     <g id="text_3">
      <!-- 0.1458 -->
      <g transform="translate(396.615438 265.075063) scale(0.1 -0.1)">
       <defs>
        <path id="CMUSerif-Roman-31" d="M 569 3653 
L 569 3853 
Q 1338 3853 1734 4263 
Q 1844 4263 1862 4238 
Q 1881 4213 1881 4097 
L 1881 506 
Q 1881 316 1975 256 
Q 2069 197 2478 197 
L 2681 197 
L 2681 0 
Q 2456 19 1643 19 
Q 831 19 609 0 
L 609 197 
L 813 197 
Q 1216 197 1312 255 
Q 1409 313 1409 506 
L 1409 3822 
Q 1075 3653 569 3653 
z
" transform="scale(0.015625)"/>
        <path id="CMUSerif-Roman-34" d="M 178 1056 
L 178 1253 
L 2144 4256 
Q 2194 4334 2272 4331 
Q 2344 4331 2359 4303 
Q 2375 4275 2375 4166 
L 2375 1253 
L 3016 1253 
L 3016 1056 
L 2375 1056 
L 2375 500 
Q 2375 316 2451 256 
Q 2528 197 2859 197 
L 2994 197 
L 2994 0 
Q 2731 19 2125 19 
Q 1522 19 1259 0 
L 1259 197 
L 1394 197 
Q 1725 197 1803 255 
Q 1881 313 1881 500 
L 1881 1056 
L 178 1056 
z
M 359 1253 
L 1919 1253 
L 1919 3641 
L 359 1253 
z
" transform="scale(0.015625)"/>
        <path id="CMUSerif-Roman-38" d="M 269 966 
Q 269 1681 1191 2144 
Q 794 2413 722 2491 
Q 441 2803 441 3194 
Q 441 3641 780 3952 
Q 1119 4263 1600 4263 
Q 2059 4263 2406 3997 
Q 2753 3731 2753 3309 
Q 2753 2716 1978 2316 
Q 2491 1997 2613 1863 
Q 2925 1516 2925 1075 
Q 2925 563 2531 211 
Q 2138 -141 1594 -141 
Q 1063 -141 666 168 
Q 269 478 269 966 
z
M 588 966 
Q 588 569 886 303 
Q 1184 38 1600 38 
Q 2003 38 2304 269 
Q 2606 500 2606 844 
Q 2606 978 2561 1093 
Q 2516 1209 2427 1301 
Q 2338 1394 2283 1436 
Q 2228 1478 2125 1550 
L 1338 2047 
Q 588 1631 588 966 
z
M 722 3444 
Q 722 3138 1044 2925 
L 1838 2413 
Q 2472 2784 2472 3309 
Q 2472 3650 2212 3876 
Q 1953 4103 1594 4103 
Q 1241 4103 981 3917 
Q 722 3731 722 3444 
z
" transform="scale(0.015625)"/>
       </defs>
       <use xlink:href="#CMUSerif-Roman-30"/>
       <use xlink:href="#CMUSerif-Roman-2e" x="50"/>
       <use xlink:href="#CMUSerif-Roman-31" x="77.783203"/>
       <use xlink:href="#CMUSerif-Roman-34" x="127.783203"/>
       <use xlink:href="#CMUSerif-Roman-35" x="177.783203"/>
       <use xlink:href="#CMUSerif-Roman-38" x="227.783203"/>
      </g>
     </g>
    </g>
    <g id="xtick_4">
     <g id="line2d_7">
      <path d="M 360.9045 251.136 
L 360.9045 7.2 
" clip-path="url(#p39dbeae67a)" style="fill: none; stroke: #b0b0b0; stroke-width: 0.8; stroke-linecap: square"/>
     </g>
     <g id="line2d_8">
      <g>
       <use xlink:href="#m315beabd5c" x="360.9045" y="251.136" style="stroke: #000000; stroke-width: 0.8"/>
      </g>
     </g>
     <g id="text_4">
      <!-- 0.0787 -->
      <g transform="translate(347.015438 265.075063) scale(0.1 -0.1)">
       <use xlink:href="#CMUSerif-Roman-30"/>
       <use xlink:href="#CMUSerif-Roman-2e" x="50"/>
       <use xlink:href="#CMUSerif-Roman-30" x="77.783203"/>
       <use xlink:href="#CMUSerif-Roman-37" x="127.783203"/>
       <use xlink:href="#CMUSerif-Roman-38" x="177.783203"/>
       <use xlink:href="#CMUSerif-Roman-37" x="227.783203"/>
      </g>
     </g>
    </g>
    <g id="xtick_5">
     <g id="line2d_9">
      <path d="M 311.3045 251.136 
L 311.3045 7.2 
" clip-path="url(#p39dbeae67a)" style="fill: none; stroke: #b0b0b0; stroke-width: 0.8; stroke-linecap: square"/>
     </g>
     <g id="line2d_10">
      <g>
       <use xlink:href="#m315beabd5c" x="311.3045" y="251.136" style="stroke: #000000; stroke-width: 0.8"/>
      </g>
     </g>
     <g id="text_5">
      <!-- 0.0425 -->
      <g transform="translate(297.415438 265.075063) scale(0.1 -0.1)">
       <use xlink:href="#CMUSerif-Roman-30"/>
       <use xlink:href="#CMUSerif-Roman-2e" x="50"/>
       <use xlink:href="#CMUSerif-Roman-30" x="77.783203"/>
       <use xlink:href="#CMUSerif-Roman-34" x="127.783203"/>
       <use xlink:href="#CMUSerif-Roman-32" x="177.783203"/>
       <use xlink:href="#CMUSerif-Roman-35" x="227.783203"/>
      </g>
     </g>
    </g>
    <g id="xtick_6">
     <g id="line2d_11">
      <path d="M 261.7045 251.136 
L 261.7045 7.2 
" clip-path="url(#p39dbeae67a)" style="fill: none; stroke: #b0b0b0; stroke-width: 0.8; stroke-linecap: square"/>
     </g>
     <g id="line2d_12">
      <g>
       <use xlink:href="#m315beabd5c" x="261.7045" y="251.136" style="stroke: #000000; stroke-width: 0.8"/>
      </g>
     </g>
     <g id="text_6">
      <!-- 0.0230 -->
      <g transform="translate(247.815438 265.075063) scale(0.1 -0.1)">
       <defs>
        <path id="CMUSerif-Roman-33" d="M 269 863 
Q 269 1053 378 1143 
Q 488 1234 628 1234 
Q 775 1234 879 1139 
Q 984 1044 984 878 
Q 984 700 861 600 
Q 738 500 563 525 
Q 716 269 998 153 
Q 1281 38 1544 38 
Q 1819 38 2042 275 
Q 2266 513 2266 1094 
Q 2266 1588 2073 1872 
Q 1881 2156 1503 2156 
L 1222 2156 
Q 1125 2156 1097 2165 
Q 1069 2175 1069 2228 
Q 1069 2291 1166 2303 
Q 1263 2303 1416 2322 
Q 1788 2334 1984 2656 
Q 2163 2956 2163 3384 
Q 2163 3775 1977 3939 
Q 1791 4103 1550 4103 
Q 1325 4103 1078 4009 
Q 831 3916 697 3706 
Q 1094 3706 1094 3384 
Q 1094 3244 1005 3151 
Q 916 3059 769 3059 
Q 628 3059 534 3148 
Q 441 3238 441 3391 
Q 441 3756 767 4009 
Q 1094 4263 1575 4263 
Q 2050 4263 2401 4013 
Q 2753 3763 2753 3378 
Q 2753 3000 2503 2690 
Q 2253 2381 1856 2253 
Q 2344 2156 2634 1826 
Q 2925 1497 2925 1094 
Q 2925 594 2531 226 
Q 2138 -141 1563 -141 
Q 1031 -141 650 146 
Q 269 434 269 863 
z
" transform="scale(0.015625)"/>
       </defs>
       <use xlink:href="#CMUSerif-Roman-30"/>
       <use xlink:href="#CMUSerif-Roman-2e" x="50"/>
       <use xlink:href="#CMUSerif-Roman-30" x="77.783203"/>
       <use xlink:href="#CMUSerif-Roman-32" x="127.783203"/>
       <use xlink:href="#CMUSerif-Roman-33" x="177.783203"/>
       <use xlink:href="#CMUSerif-Roman-30" x="227.783203"/>
      </g>
     </g>
    </g>
    <g id="xtick_7">
     <g id="line2d_13">
      <path d="M 212.1045 251.136 
L 212.1045 7.2 
" clip-path="url(#p39dbeae67a)" style="fill: none; stroke: #b0b0b0; stroke-width: 0.8; stroke-linecap: square"/>
     </g>
     <g id="line2d_14">
      <g>
       <use xlink:href="#m315beabd5c" x="212.1045" y="251.136" style="stroke: #000000; stroke-width: 0.8"/>
      </g>
     </g>
     <g id="text_7">
      <!-- 0.0124 -->
      <g transform="translate(198.215438 265.075063) scale(0.1 -0.1)">
       <use xlink:href="#CMUSerif-Roman-30"/>
       <use xlink:href="#CMUSerif-Roman-2e" x="50"/>
       <use xlink:href="#CMUSerif-Roman-30" x="77.783203"/>
       <use xlink:href="#CMUSerif-Roman-31" x="127.783203"/>
       <use xlink:href="#CMUSerif-Roman-32" x="177.783203"/>
       <use xlink:href="#CMUSerif-Roman-34" x="227.783203"/>
      </g>
     </g>
    </g>
    <g id="xtick_8">
     <g id="line2d_15">
      <path d="M 162.5045 251.136 
L 162.5045 7.2 
" clip-path="url(#p39dbeae67a)" style="fill: none; stroke: #b0b0b0; stroke-width: 0.8; stroke-linecap: square"/>
     </g>
     <g id="line2d_16">
      <g>
       <use xlink:href="#m315beabd5c" x="162.5045" y="251.136" style="stroke: #000000; stroke-width: 0.8"/>
      </g>
     </g>
     <g id="text_8">
      <!-- 0.0067 -->
      <g transform="translate(148.615438 265.075063) scale(0.1 -0.1)">
       <defs>
        <path id="CMUSerif-Roman-36" d="M 269 2022 
Q 269 3028 781 3645 
Q 1294 4263 1953 4263 
Q 2338 4263 2552 4067 
Q 2766 3872 2766 3572 
Q 2766 3406 2669 3334 
Q 2572 3263 2472 3263 
Q 2356 3263 2265 3341 
Q 2175 3419 2175 3559 
Q 2175 3847 2528 3847 
Q 2363 4103 1966 4103 
Q 1844 4103 1719 4067 
Q 1594 4031 1431 3912 
Q 1269 3794 1144 3606 
Q 1019 3419 931 3066 
Q 844 2713 844 2253 
L 844 2100 
Q 1106 2734 1643 2732 
Q 2181 2731 2553 2322 
Q 2925 1913 2925 1306 
Q 2925 684 2537 271 
Q 2150 -141 1606 -141 
Q 1363 -141 1142 -39 
Q 922 63 717 294 
Q 513 525 391 969 
Q 269 1413 269 2022 
z
M 856 1447 
Q 856 819 972 519 
Q 991 469 1033 400 
Q 1075 331 1148 242 
Q 1222 153 1344 95 
Q 1466 38 1606 38 
Q 2034 38 2241 453 
Q 2350 684 2350 1313 
Q 2350 1953 2234 2188 
Q 2038 2584 1638 2584 
Q 1369 2584 1183 2400 
Q 997 2216 926 1969 
Q 856 1722 856 1447 
z
" transform="scale(0.015625)"/>
       </defs>
       <use xlink:href="#CMUSerif-Roman-30"/>
       <use xlink:href="#CMUSerif-Roman-2e" x="50"/>
       <use xlink:href="#CMUSerif-Roman-30" x="77.783203"/>
       <use xlink:href="#CMUSerif-Roman-30" x="127.783203"/>
       <use xlink:href="#CMUSerif-Roman-36" x="177.783203"/>
       <use xlink:href="#CMUSerif-Roman-37" x="227.783203"/>
      </g>
     </g>
    </g>
    <g id="xtick_9">
     <g id="line2d_17">
      <path d="M 112.9045 251.136 
L 112.9045 7.2 
" clip-path="url(#p39dbeae67a)" style="fill: none; stroke: #b0b0b0; stroke-width: 0.8; stroke-linecap: square"/>
     </g>
     <g id="line2d_18">
      <g>
       <use xlink:href="#m315beabd5c" x="112.9045" y="251.136" style="stroke: #000000; stroke-width: 0.8"/>
      </g>
     </g>
     <g id="text_9">
      <!-- 0.0036 -->
      <g transform="translate(99.015438 265.075063) scale(0.1 -0.1)">
       <use xlink:href="#CMUSerif-Roman-30"/>
       <use xlink:href="#CMUSerif-Roman-2e" x="50"/>
       <use xlink:href="#CMUSerif-Roman-30" x="77.783203"/>
       <use xlink:href="#CMUSerif-Roman-30" x="127.783203"/>
       <use xlink:href="#CMUSerif-Roman-33" x="177.783203"/>
       <use xlink:href="#CMUSerif-Roman-36" x="227.783203"/>
      </g>
     </g>
    </g>
    <g id="xtick_10">
     <g id="line2d_19">
      <path d="M 63.3045 251.136 
L 63.3045 7.2 
" clip-path="url(#p39dbeae67a)" style="fill: none; stroke: #b0b0b0; stroke-width: 0.8; stroke-linecap: square"/>
     </g>
     <g id="line2d_20">
      <g>
       <use xlink:href="#m315beabd5c" x="63.3045" y="251.136" style="stroke: #000000; stroke-width: 0.8"/>
      </g>
     </g>
     <g id="text_10">
      <!-- 0.0020 -->
      <g transform="translate(49.415438 265.075063) scale(0.1 -0.1)">
       <use xlink:href="#CMUSerif-Roman-30"/>
       <use xlink:href="#CMUSerif-Roman-2e" x="50"/>
       <use xlink:href="#CMUSerif-Roman-30" x="77.783203"/>
       <use xlink:href="#CMUSerif-Roman-30" x="127.783203"/>
       <use xlink:href="#CMUSerif-Roman-32" x="177.783203"/>
       <use xlink:href="#CMUSerif-Roman-30" x="227.783203"/>
      </g>
     </g>
    </g>
    <g id="text_11">
     <!-- Steglängd -->
     <g transform="translate(255.7425 281.168375) scale(0.144 -0.144)">
      <defs>
       <path id="CMUSerif-Roman-53" d="M 359 13 
L 359 1294 
Q 359 1366 362 1391 
Q 366 1416 384 1434 
Q 403 1453 441 1453 
Q 513 1453 519 1388 
Q 538 753 916 403 
Q 1288 56 1925 56 
Q 2309 56 2546 332 
Q 2784 609 2784 972 
Q 2784 1319 2584 1563 
Q 2500 1672 2395 1742 
Q 2291 1813 2227 1834 
Q 2163 1856 2041 1888 
Q 1247 2078 1197 2100 
Q 819 2228 589 2551 
Q 359 2875 359 3272 
Q 359 3784 720 4148 
Q 1081 4513 1606 4513 
Q 1869 4513 2089 4430 
Q 2309 4347 2400 4272 
Q 2491 4197 2631 4063 
L 2853 4428 
Q 2903 4513 2950 4513 
Q 3000 4513 3011 4483 
Q 3022 4453 3022 4359 
L 3022 3072 
Q 3022 3000 3019 2975 
Q 3016 2950 2995 2934 
Q 2975 2919 2938 2919 
Q 2875 2919 2859 2994 
Q 2681 4331 1613 4331 
Q 1247 4331 1008 4086 
Q 769 3841 769 3494 
Q 769 3213 944 2983 
Q 1119 2753 1416 2681 
L 2234 2484 
Q 2644 2388 2919 2025 
Q 3194 1663 3194 1191 
Q 3194 647 2839 253 
Q 2484 -141 1931 -141 
Q 1534 -141 1228 -9 
Q 922 122 756 306 
Q 628 94 544 -25 
L 525 -56 
Q 475 -141 428 -141 
Q 378 -141 368 -109 
Q 359 -78 359 13 
z
" transform="scale(0.015625)"/>
       <path id="CMUSerif-Roman-74" d="M 122 2559 
L 122 2700 
Q 416 2713 611 2920 
Q 806 3128 873 3384 
Q 941 3641 947 3938 
L 1106 3938 
L 1106 2759 
L 2022 2759 
L 2022 2559 
L 1106 2559 
L 1106 781 
Q 1106 91 1538 91 
Q 1722 91 1844 280 
Q 1966 469 1966 806 
L 1966 1159 
L 2125 1159 
L 2125 794 
Q 2125 447 1965 187 
Q 1806 -72 1491 -72 
Q 1375 -72 1261 -42 
Q 1147 -13 998 64 
Q 850 141 758 330 
Q 666 519 666 794 
L 666 2559 
L 122 2559 
z
" transform="scale(0.015625)"/>
       <path id="CMUSerif-Roman-65" d="M 178 1409 
Q 178 2013 565 2441 
Q 953 2869 1509 2869 
Q 2072 2869 2364 2503 
Q 2656 2138 2656 1613 
Q 2656 1516 2631 1497 
Q 2606 1478 2497 1478 
L 709 1478 
Q 709 825 903 519 
Q 1172 91 1625 91 
Q 1688 91 1763 103 
Q 1838 116 1991 170 
Q 2144 225 2278 372 
Q 2413 519 2491 750 
Q 2509 841 2572 838 
Q 2656 838 2656 763 
Q 2656 706 2595 579 
Q 2534 453 2418 303 
Q 2303 153 2079 40 
Q 1856 -72 1588 -72 
Q 1025 -72 601 354 
Q 178 781 178 1409 
z
M 716 1613 
L 2234 1613 
Q 2234 1747 2211 1897 
Q 2188 2047 2120 2255 
Q 2053 2463 1897 2594 
Q 1741 2725 1509 2725 
Q 1406 2725 1295 2681 
Q 1184 2638 1050 2531 
Q 916 2425 822 2184 
Q 728 1944 716 1613 
z
" transform="scale(0.015625)"/>
       <path id="CMUSerif-Roman-67" d="M 178 -506 
Q 178 -300 336 -122 
Q 494 56 769 134 
Q 488 313 488 703 
Q 488 1003 684 1234 
Q 384 1484 384 1894 
Q 384 2272 684 2550 
Q 984 2828 1422 2828 
Q 1806 2828 2100 2597 
Q 2406 2897 2778 2900 
Q 2944 2900 3023 2797 
Q 3103 2694 3103 2584 
Q 3103 2488 3042 2441 
Q 2981 2394 2919 2394 
Q 2841 2394 2786 2445 
Q 2731 2497 2731 2578 
Q 2731 2713 2834 2753 
Q 2816 2759 2772 2759 
Q 2459 2759 2194 2509 
Q 2456 2266 2456 1887 
Q 2456 1509 2156 1231 
Q 1856 953 1422 953 
Q 1063 953 788 1153 
Q 678 1025 678 850 
Q 678 691 775 566 
Q 872 441 1019 422 
Q 1063 416 1497 416 
Q 1753 416 1893 409 
Q 2034 403 2236 361 
Q 2438 319 2597 238 
Q 3013 6 3016 -494 
Q 3016 -859 2595 -1089 
Q 2175 -1319 1594 -1319 
Q 1006 -1319 592 -1086 
Q 178 -853 178 -506 
z
M 513 -506 
Q 513 -769 822 -970 
Q 1131 -1172 1600 -1172 
Q 2059 -1172 2370 -973 
Q 2681 -775 2681 -506 
Q 2681 -316 2572 -194 
Q 2463 -72 2239 -23 
Q 2016 25 1859 34 
Q 1703 44 1416 44 
L 1038 44 
Q 819 31 666 -128 
Q 513 -288 513 -506 
z
M 863 1888 
Q 863 1100 1422 1100 
Q 1703 1100 1875 1356 
Q 1978 1528 1978 1894 
Q 1978 2681 1422 2681 
Q 1141 2681 966 2425 
Q 863 2253 863 1888 
z
" transform="scale(0.015625)"/>
       <path id="CMUSerif-Roman-6c" d="M 213 0 
L 213 197 
Q 553 197 631 239 
Q 709 281 709 488 
L 709 3816 
Q 709 4053 626 4112 
Q 544 4172 213 4172 
L 213 4372 
L 1131 4441 
L 1131 488 
Q 1131 281 1212 239 
Q 1294 197 1631 197 
L 1631 0 
Q 1553 0 1390 6 
Q 1228 13 1109 16 
Q 991 19 922 19 
Q 847 19 213 0 
z
" transform="scale(0.015625)"/>
       <path id="CMUSerif-Roman-e4" d="M 269 609 
Q 269 1153 909 1441 
Q 1294 1625 2088 1672 
L 2088 1906 
Q 2088 2303 1880 2514 
Q 1672 2725 1409 2725 
Q 941 2725 716 2431 
Q 906 2425 975 2329 
Q 1044 2234 1044 2138 
Q 1044 2009 964 1926 
Q 884 1844 750 1844 
Q 622 1844 537 1923 
Q 453 2003 453 2144 
Q 453 2456 736 2662 
Q 1019 2869 1422 2869 
Q 1947 2869 2297 2516 
Q 2406 2406 2461 2265 
Q 2516 2125 2522 2033 
Q 2528 1941 2528 1759 
L 2528 481 
Q 2528 444 2540 381 
Q 2553 319 2611 239 
Q 2669 159 2766 159 
Q 2997 159 2994 569 
L 2994 928 
L 3156 928 
L 3156 569 
Q 3156 228 2976 95 
Q 2797 -38 2631 -38 
Q 2419 -38 2284 118 
Q 2150 275 2131 488 
Q 2034 244 1814 86 
Q 1594 -72 1294 -72 
Q 1063 -72 845 -14 
Q 628 44 448 205 
Q 269 366 269 609 
z
M 641 3878 
Q 641 4025 739 4122 
Q 838 4219 972 4219 
Q 1100 4219 1206 4119 
Q 1313 4019 1313 3878 
Q 1313 3738 1206 3642 
Q 1100 3547 972 3547 
Q 825 3547 733 3645 
Q 641 3744 641 3878 
z
M 763 616 
Q 763 378 931 225 
Q 1100 72 1338 72 
Q 1606 72 1847 280 
Q 2088 488 2088 897 
L 2088 1538 
Q 1378 1513 1070 1230 
Q 763 947 763 616 
z
M 1881 3878 
Q 1881 4025 1984 4122 
Q 2088 4219 2222 4219 
Q 2356 4219 2454 4122 
Q 2553 4025 2553 3878 
Q 2553 3738 2451 3642 
Q 2350 3547 2222 3547 
Q 2075 3547 1978 3645 
Q 1881 3744 1881 3878 
z
" transform="scale(0.015625)"/>
       <path id="CMUSerif-Roman-6e" d="M 206 0 
L 206 197 
Q 547 197 625 239 
Q 703 281 703 488 
L 703 2203 
Q 703 2441 620 2500 
Q 538 2559 206 2559 
L 206 2759 
L 1106 2828 
L 1106 2156 
Q 1406 2828 2053 2828 
Q 2534 2828 2725 2591 
Q 2866 2431 2895 2253 
Q 2925 2075 2925 1613 
L 2925 391 
Q 2931 256 3034 226 
Q 3138 197 3425 197 
L 3425 0 
Q 2772 19 2706 19 
Q 2656 19 1984 0 
L 1984 197 
Q 2325 197 2404 239 
Q 2484 281 2484 488 
L 2484 1978 
Q 2484 2303 2384 2495 
Q 2284 2688 2009 2688 
Q 1678 2688 1412 2409 
Q 1147 2131 1147 1663 
L 1147 488 
Q 1147 281 1226 239 
Q 1306 197 1644 197 
L 1644 0 
Q 991 19 928 19 
Q 878 19 206 0 
z
" transform="scale(0.015625)"/>
       <path id="CMUSerif-Roman-64" d="M 219 1375 
Q 219 1984 644 2406 
Q 1069 2828 1644 2828 
Q 2131 2828 2450 2431 
L 2450 3816 
Q 2450 4053 2367 4112 
Q 2284 4172 1953 4172 
L 1953 4372 
L 2875 4441 
L 2875 556 
Q 2875 319 2958 258 
Q 3041 197 3372 197 
L 3372 0 
L 2431 -72 
L 2431 353 
Q 2100 -69 1575 -72 
Q 1025 -72 622 350 
Q 219 772 219 1375 
z
M 750 1369 
Q 750 775 934 481 
Q 1191 72 1606 72 
Q 2081 72 2363 519 
Q 2434 628 2431 756 
L 2431 2069 
Q 2431 2197 2363 2303 
Q 2100 2688 1672 2688 
Q 1225 2688 947 2278 
Q 750 1972 750 1369 
z
" transform="scale(0.015625)"/>
      </defs>
      <use xlink:href="#CMUSerif-Roman-53"/>
      <use xlink:href="#CMUSerif-Roman-74" x="55.46875"/>
      <use xlink:href="#CMUSerif-Roman-65" x="94.238281"/>
      <use xlink:href="#CMUSerif-Roman-67" x="138.623047"/>
      <use xlink:href="#CMUSerif-Roman-6c" x="188.623047"/>
      <use xlink:href="#CMUSerif-Roman-e4" x="216.308594"/>
      <use xlink:href="#CMUSerif-Roman-6e" x="266.308594"/>
      <use xlink:href="#CMUSerif-Roman-67" x="321.777344"/>
      <use xlink:href="#CMUSerif-Roman-64" x="371.777344"/>
     </g>
    </g>
   </g>
   <g id="matplotlib.axis_2">
    <g id="ytick_1">
     <g id="line2d_21">
      <path d="M 40.9845 240.076178 
L 532.0245 240.076178 
" clip-path="url(#p39dbeae67a)" style="fill: none; stroke: #b0b0b0; stroke-width: 0.8; stroke-linecap: square"/>
     </g>
     <g id="line2d_22">
      <defs>
       <path id="m0aab4fbda3" d="M 0 0 
L -3.5 0 
" style="stroke: #000000; stroke-width: 0.8"/>
      </defs>
      <g>
       <use xlink:href="#m0aab4fbda3" x="40.9845" y="240.076178" style="stroke: #000000; stroke-width: 0.8"/>
      </g>
     </g>
     <g id="text_12">
      <!-- 0 -->
      <g transform="translate(28.9845 243.545709) scale(0.1 -0.1)">
       <use xlink:href="#CMUSerif-Roman-30"/>
      </g>
     </g>
    </g>
    <g id="ytick_2">
     <g id="line2d_23">
      <path d="M 40.9845 205.923182 
L 532.0245 205.923182 
" clip-path="url(#p39dbeae67a)" style="fill: none; stroke: #b0b0b0; stroke-width: 0.8; stroke-linecap: square"/>
     </g>
     <g id="line2d_24">
      <g>
       <use xlink:href="#m0aab4fbda3" x="40.9845" y="205.923182" style="stroke: #000000; stroke-width: 0.8"/>
      </g>
     </g>
     <g id="text_13">
      <!-- 10 -->
      <g transform="translate(23.9845 209.392713) scale(0.1 -0.1)">
       <use xlink:href="#CMUSerif-Roman-31"/>
       <use xlink:href="#CMUSerif-Roman-30" x="50"/>
      </g>
     </g>
    </g>
    <g id="ytick_3">
     <g id="line2d_25">
      <path d="M 40.9845 171.770186 
L 532.0245 171.770186 
" clip-path="url(#p39dbeae67a)" style="fill: none; stroke: #b0b0b0; stroke-width: 0.8; stroke-linecap: square"/>
     </g>
     <g id="line2d_26">
      <g>
       <use xlink:href="#m0aab4fbda3" x="40.9845" y="171.770186" style="stroke: #000000; stroke-width: 0.8"/>
      </g>
     </g>
     <g id="text_14">
      <!-- 20 -->
      <g transform="translate(23.9845 175.239717) scale(0.1 -0.1)">
       <use xlink:href="#CMUSerif-Roman-32"/>
       <use xlink:href="#CMUSerif-Roman-30" x="50"/>
      </g>
     </g>
    </g>
    <g id="ytick_4">
     <g id="line2d_27">
      <path d="M 40.9845 137.61719 
L 532.0245 137.61719 
" clip-path="url(#p39dbeae67a)" style="fill: none; stroke: #b0b0b0; stroke-width: 0.8; stroke-linecap: square"/>
     </g>
     <g id="line2d_28">
      <g>
       <use xlink:href="#m0aab4fbda3" x="40.9845" y="137.61719" style="stroke: #000000; stroke-width: 0.8"/>
      </g>
     </g>
     <g id="text_15">
      <!-- 30 -->
      <g transform="translate(23.9845 141.086722) scale(0.1 -0.1)">
       <use xlink:href="#CMUSerif-Roman-33"/>
       <use xlink:href="#CMUSerif-Roman-30" x="50"/>
      </g>
     </g>
    </g>
    <g id="ytick_5">
     <g id="line2d_29">
      <path d="M 40.9845 103.464195 
L 532.0245 103.464195 
" clip-path="url(#p39dbeae67a)" style="fill: none; stroke: #b0b0b0; stroke-width: 0.8; stroke-linecap: square"/>
     </g>
     <g id="line2d_30">
      <g>
       <use xlink:href="#m0aab4fbda3" x="40.9845" y="103.464195" style="stroke: #000000; stroke-width: 0.8"/>
      </g>
     </g>
     <g id="text_16">
      <!-- 40 -->
      <g transform="translate(23.9845 106.933726) scale(0.1 -0.1)">
       <use xlink:href="#CMUSerif-Roman-34"/>
       <use xlink:href="#CMUSerif-Roman-30" x="50"/>
      </g>
     </g>
    </g>
    <g id="ytick_6">
     <g id="line2d_31">
      <path d="M 40.9845 69.311199 
L 532.0245 69.311199 
" clip-path="url(#p39dbeae67a)" style="fill: none; stroke: #b0b0b0; stroke-width: 0.8; stroke-linecap: square"/>
     </g>
     <g id="line2d_32">
      <g>
       <use xlink:href="#m0aab4fbda3" x="40.9845" y="69.311199" style="stroke: #000000; stroke-width: 0.8"/>
      </g>
     </g>
     <g id="text_17">
      <!-- 50 -->
      <g transform="translate(23.9845 72.78073) scale(0.1 -0.1)">
       <use xlink:href="#CMUSerif-Roman-35"/>
       <use xlink:href="#CMUSerif-Roman-30" x="50"/>
      </g>
     </g>
    </g>
    <g id="ytick_7">
     <g id="line2d_33">
      <path d="M 40.9845 35.158203 
L 532.0245 35.158203 
" clip-path="url(#p39dbeae67a)" style="fill: none; stroke: #b0b0b0; stroke-width: 0.8; stroke-linecap: square"/>
     </g>
     <g id="line2d_34">
      <g>
       <use xlink:href="#m0aab4fbda3" x="40.9845" y="35.158203" style="stroke: #000000; stroke-width: 0.8"/>
      </g>
     </g>
     <g id="text_18">
      <!-- 60 -->
      <g transform="translate(23.9845 38.627734) scale(0.1 -0.1)">
       <use xlink:href="#CMUSerif-Roman-36"/>
       <use xlink:href="#CMUSerif-Roman-30" x="50"/>
      </g>
     </g>
    </g>
    <g id="text_19">
     <!-- Avvikelse -->
     <g transform="translate(17.19225 159.161625) rotate(-90) scale(0.144 -0.144)">
      <defs>
       <path id="CMUSerif-Roman-41" d="M 206 0 
L 206 197 
Q 775 209 922 628 
L 2247 4453 
Q 2272 4531 2300 4556 
Q 2328 4581 2400 4581 
Q 2438 4581 2461 4575 
Q 2484 4569 2500 4547 
Q 2516 4525 2522 4512 
Q 2528 4500 2547 4453 
L 3928 453 
Q 3978 294 4081 245 
Q 4184 197 4475 197 
L 4588 197 
L 4588 0 
Q 4184 19 3750 19 
Q 3059 19 2828 0 
L 2828 197 
Q 3359 197 3359 391 
Q 3359 403 3341 481 
L 3003 1459 
L 1422 1459 
L 1125 622 
Q 1113 597 1113 525 
Q 1113 391 1238 294 
Q 1363 197 1594 197 
L 1594 0 
Q 978 19 856 19 
Q 647 19 206 0 
z
M 1491 1656 
L 2931 1656 
L 2209 3738 
L 1491 1656 
z
" transform="scale(0.015625)"/>
       <path id="CMUSerif-Roman-76" d="M 122 2559 
L 122 2759 
Q 409 2741 744 2741 
Q 866 2741 1441 2759 
L 1441 2559 
Q 1075 2559 1075 2394 
Q 1075 2369 1113 2284 
L 1831 500 
L 2484 2131 
Q 2522 2241 2522 2284 
Q 2522 2394 2448 2473 
Q 2375 2553 2216 2559 
L 2216 2759 
Q 2541 2741 2772 2741 
Q 3034 2741 3250 2759 
L 3250 2559 
Q 3059 2559 2925 2473 
Q 2791 2388 2748 2314 
Q 2706 2241 2663 2131 
L 1825 50 
Q 1775 -72 1691 -72 
Q 1634 -72 1611 -48 
Q 1588 -25 1556 50 
L 634 2322 
Q 572 2481 490 2520 
Q 409 2559 122 2559 
z
" transform="scale(0.015625)"/>
       <path id="CMUSerif-Roman-69" d="M 213 0 
L 213 197 
Q 553 197 631 239 
Q 709 281 709 488 
L 709 2209 
Q 709 2447 629 2503 
Q 550 2559 238 2559 
L 238 2759 
L 1131 2828 
L 1131 481 
Q 1131 291 1200 244 
Q 1269 197 1581 197 
L 1581 0 
Q 928 19 916 19 
Q 828 19 213 0 
z
M 481 3944 
Q 481 4072 579 4176 
Q 678 4281 818 4281 
Q 959 4281 1059 4186 
Q 1159 4091 1159 3942 
Q 1159 3794 1059 3698 
Q 959 3603 819 3603 
Q 672 3603 576 3706 
Q 481 3809 481 3944 
z
" transform="scale(0.015625)"/>
       <path id="CMUSerif-Roman-6b" d="M 178 0 
L 178 197 
Q 519 197 598 239 
Q 678 281 678 488 
L 678 3816 
Q 678 4053 595 4112 
Q 513 4172 178 4172 
L 178 4372 
L 1100 4441 
L 1100 1369 
L 2003 2150 
Q 2144 2272 2144 2400 
Q 2144 2547 1959 2559 
L 1959 2759 
Q 2228 2741 2675 2741 
Q 2938 2741 3122 2759 
L 3122 2559 
Q 2719 2541 2316 2216 
Q 2225 2144 2011 1958 
Q 1797 1772 1797 1753 
Q 1797 1747 1805 1731 
Q 1813 1716 1825 1703 
Q 1838 1691 1838 1684 
L 2650 538 
Q 2816 306 2937 251 
Q 3059 197 3272 197 
L 3272 0 
Q 2997 19 2713 19 
Q 2559 19 2022 0 
L 2022 197 
Q 2253 197 2253 347 
Q 2253 450 1734 1166 
Q 1697 1216 1613 1325 
Q 1534 1441 1491 1497 
L 1081 1147 
L 1081 488 
Q 1081 281 1161 239 
Q 1241 197 1581 197 
L 1581 0 
Q 1197 19 878 19 
Q 813 19 178 0 
z
" transform="scale(0.015625)"/>
       <path id="CMUSerif-Roman-73" d="M 213 84 
L 213 928 
Q 213 1000 216 1025 
Q 219 1050 237 1069 
Q 256 1088 294 1088 
Q 338 1088 355 1069 
Q 372 1050 384 978 
Q 481 538 689 305 
Q 897 72 1275 72 
Q 1634 72 1815 231 
Q 1997 391 1997 653 
Q 1997 1122 1331 1241 
Q 947 1319 787 1370 
Q 628 1422 488 1538 
Q 213 1763 213 2081 
Q 213 2400 455 2634 
Q 697 2869 1234 2869 
Q 1594 2869 1838 2688 
Q 1909 2744 1947 2791 
Q 2031 2869 2075 2869 
Q 2125 2869 2134 2836 
Q 2144 2803 2144 2713 
L 2144 2069 
Q 2144 1997 2141 1972 
Q 2138 1947 2119 1930 
Q 2100 1913 2059 1913 
Q 1988 1913 1984 1972 
Q 1934 2747 1234 2747 
Q 856 2747 687 2601 
Q 519 2456 519 2259 
Q 519 2150 570 2067 
Q 622 1984 689 1936 
Q 756 1888 881 1842 
Q 1006 1797 1082 1781 
Q 1159 1766 1306 1734 
Q 1819 1638 2034 1428 
Q 2303 1159 2303 819 
Q 2303 441 2047 184 
Q 1791 -72 1275 -72 
Q 859 -72 569 206 
Q 531 169 503 136 
Q 475 103 464 90 
Q 453 78 450 70 
Q 447 63 441 56 
Q 313 -72 281 -72 
Q 231 -72 222 -39 
Q 213 -6 213 84 
z
" transform="scale(0.015625)"/>
      </defs>
      <use xlink:href="#CMUSerif-Roman-41"/>
      <use xlink:href="#CMUSerif-Roman-76" x="75"/>
      <use xlink:href="#CMUSerif-Roman-76" x="127.685547"/>
      <use xlink:href="#CMUSerif-Roman-69" x="180.371094"/>
      <use xlink:href="#CMUSerif-Roman-6b" x="208.056641"/>
      <use xlink:href="#CMUSerif-Roman-65" x="260.742188"/>
      <use xlink:href="#CMUSerif-Roman-6c" x="305.126953"/>
      <use xlink:href="#CMUSerif-Roman-73" x="332.8125"/>
      <use xlink:href="#CMUSerif-Roman-65" x="372.167969"/>
     </g>
    </g>
   </g>
   <g id="line2d_35">
    <path d="M 509.7045 84.350718 
L 453.9045 107.064186 
L 398.1045 121.177355 
L 342.3045 133.192771 
L 286.5045 145.771492 
L 230.7045 163.644106 
L 174.9045 186.212095 
L 119.1045 206.898164 
L 63.3045 221.460711 
" clip-path="url(#p39dbeae67a)" style="fill: none; stroke: #1f77b4; stroke-width: 1.5; stroke-linecap: square"/>
    <defs>
     <path id="m5f578e3135" d="M 0 3 
C 0.795609 3 1.55874 2.683901 2.12132 2.12132 
C 2.683901 1.55874 3 0.795609 3 0 
C 3 -0.795609 2.683901 -1.55874 2.12132 -2.12132 
C 1.55874 -2.683901 0.795609 -3 0 -3 
C -0.795609 -3 -1.55874 -2.683901 -2.12132 -2.12132 
C -2.683901 -1.55874 -3 -0.795609 -3 0 
C -3 0.795609 -2.683901 1.55874 -2.12132 2.12132 
C -1.55874 2.683901 -0.795609 3 0 3 
z
" style="stroke: #1f77b4"/>
    </defs>
    <g clip-path="url(#p39dbeae67a)">
     <use xlink:href="#m5f578e3135" x="509.7045" y="84.350718" style="fill: #1f77b4; stroke: #1f77b4"/>
     <use xlink:href="#m5f578e3135" x="453.9045" y="107.064186" style="fill: #1f77b4; stroke: #1f77b4"/>
     <use xlink:href="#m5f578e3135" x="398.1045" y="121.177355" style="fill: #1f77b4; stroke: #1f77b4"/>
     <use xlink:href="#m5f578e3135" x="342.3045" y="133.192771" style="fill: #1f77b4; stroke: #1f77b4"/>
     <use xlink:href="#m5f578e3135" x="286.5045" y="145.771492" style="fill: #1f77b4; stroke: #1f77b4"/>
     <use xlink:href="#m5f578e3135" x="230.7045" y="163.644106" style="fill: #1f77b4; stroke: #1f77b4"/>
     <use xlink:href="#m5f578e3135" x="174.9045" y="186.212095" style="fill: #1f77b4; stroke: #1f77b4"/>
     <use xlink:href="#m5f578e3135" x="119.1045" y="206.898164" style="fill: #1f77b4; stroke: #1f77b4"/>
     <use xlink:href="#m5f578e3135" x="63.3045" y="221.460711" style="fill: #1f77b4; stroke: #1f77b4"/>
    </g>
   </g>
   <g id="line2d_36">
    <path d="M 509.7045 18.288 
L 453.9045 88.530511 
L 398.1045 112.886903 
L 342.3045 127.898961 
L 286.5045 142.073753 
L 230.7045 160.931683 
L 174.9045 184.355384 
L 119.1045 206.071354 
L 63.3045 221.1073 
" clip-path="url(#p39dbeae67a)" style="fill: none; stroke: #ff7f0e; stroke-width: 1.5; stroke-linecap: square"/>
    <defs>
     <path id="md984aa47bd" d="M 0 3 
C 0.795609 3 1.55874 2.683901 2.12132 2.12132 
C 2.683901 1.55874 3 0.795609 3 0 
C 3 -0.795609 2.683901 -1.55874 2.12132 -2.12132 
C 1.55874 -2.683901 0.795609 -3 0 -3 
C -0.795609 -3 -1.55874 -2.683901 -2.12132 -2.12132 
C -2.683901 -1.55874 -3 -0.795609 -3 0 
C -3 0.795609 -2.683901 1.55874 -2.12132 2.12132 
C -1.55874 2.683901 -0.795609 3 0 3 
z
" style="stroke: #ff7f0e"/>
    </defs>
    <g clip-path="url(#p39dbeae67a)">
     <use xlink:href="#md984aa47bd" x="509.7045" y="18.288" style="fill: #ff7f0e; stroke: #ff7f0e"/>
     <use xlink:href="#md984aa47bd" x="453.9045" y="88.530511" style="fill: #ff7f0e; stroke: #ff7f0e"/>
     <use xlink:href="#md984aa47bd" x="398.1045" y="112.886903" style="fill: #ff7f0e; stroke: #ff7f0e"/>
     <use xlink:href="#md984aa47bd" x="342.3045" y="127.898961" style="fill: #ff7f0e; stroke: #ff7f0e"/>
     <use xlink:href="#md984aa47bd" x="286.5045" y="142.073753" style="fill: #ff7f0e; stroke: #ff7f0e"/>
     <use xlink:href="#md984aa47bd" x="230.7045" y="160.931683" style="fill: #ff7f0e; stroke: #ff7f0e"/>
     <use xlink:href="#md984aa47bd" x="174.9045" y="184.355384" style="fill: #ff7f0e; stroke: #ff7f0e"/>
     <use xlink:href="#md984aa47bd" x="119.1045" y="206.071354" style="fill: #ff7f0e; stroke: #ff7f0e"/>
     <use xlink:href="#md984aa47bd" x="63.3045" y="221.1073" style="fill: #ff7f0e; stroke: #ff7f0e"/>
    </g>
   </g>
   <g id="line2d_37">
    <path d="M 509.7045 233.087657 
L 453.9045 206.125104 
L 398.1045 158.95721 
L 342.3045 212.230824 
L 286.5045 232.869138 
L 230.7045 238.266571 
L 174.9045 239.623558 
L 119.1045 239.963019 
L 63.3045 240.047888 
" clip-path="url(#p39dbeae67a)" style="fill: none; stroke: #2ca02c; stroke-width: 1.5; stroke-linecap: square"/>
    <defs>
     <path id="m90be69304f" d="M 0 3 
C 0.795609 3 1.55874 2.683901 2.12132 2.12132 
C 2.683901 1.55874 3 0.795609 3 0 
C 3 -0.795609 2.683901 -1.55874 2.12132 -2.12132 
C 1.55874 -2.683901 0.795609 -3 0 -3 
C -0.795609 -3 -1.55874 -2.683901 -2.12132 -2.12132 
C -2.683901 -1.55874 -3 -0.795609 -3 0 
C -3 0.795609 -2.683901 1.55874 -2.12132 2.12132 
C -1.55874 2.683901 -0.795609 3 0 3 
z
" style="stroke: #2ca02c"/>
    </defs>
    <g clip-path="url(#p39dbeae67a)">
     <use xlink:href="#m90be69304f" x="509.7045" y="233.087657" style="fill: #2ca02c; stroke: #2ca02c"/>
     <use xlink:href="#m90be69304f" x="453.9045" y="206.125104" style="fill: #2ca02c; stroke: #2ca02c"/>
     <use xlink:href="#m90be69304f" x="398.1045" y="158.95721" style="fill: #2ca02c; stroke: #2ca02c"/>
     <use xlink:href="#m90be69304f" x="342.3045" y="212.230824" style="fill: #2ca02c; stroke: #2ca02c"/>
     <use xlink:href="#m90be69304f" x="286.5045" y="232.869138" style="fill: #2ca02c; stroke: #2ca02c"/>
     <use xlink:href="#m90be69304f" x="230.7045" y="238.266571" style="fill: #2ca02c; stroke: #2ca02c"/>
     <use xlink:href="#m90be69304f" x="174.9045" y="239.623558" style="fill: #2ca02c; stroke: #2ca02c"/>
     <use xlink:href="#m90be69304f" x="119.1045" y="239.963019" style="fill: #2ca02c; stroke: #2ca02c"/>
     <use xlink:href="#m90be69304f" x="63.3045" y="240.047888" style="fill: #2ca02c; stroke: #2ca02c"/>
    </g>
   </g>
   <g id="line2d_38">
    <path d="M 509.7045 234.046241 
L 453.9045 205.466038 
L 398.1045 158.561654 
L 342.3045 212.352658 
L 286.5045 232.89749 
L 230.7045 238.274274 
L 174.9045 239.625417 
L 119.1045 239.963472 
L 63.3045 240.048 
" clip-path="url(#p39dbeae67a)" style="fill: none; stroke: #d62728; stroke-width: 1.5; stroke-linecap: square"/>
    <defs>
     <path id="m06f9906275" d="M 0 3 
C 0.795609 3 1.55874 2.683901 2.12132 2.12132 
C 2.683901 1.55874 3 0.795609 3 0 
C 3 -0.795609 2.683901 -1.55874 2.12132 -2.12132 
C 1.55874 -2.683901 0.795609 -3 0 -3 
C -0.795609 -3 -1.55874 -2.683901 -2.12132 -2.12132 
C -2.683901 -1.55874 -3 -0.795609 -3 0 
C -3 0.795609 -2.683901 1.55874 -2.12132 2.12132 
C -1.55874 2.683901 -0.795609 3 0 3 
z
" style="stroke: #d62728"/>
    </defs>
    <g clip-path="url(#p39dbeae67a)">
     <use xlink:href="#m06f9906275" x="509.7045" y="234.046241" style="fill: #d62728; stroke: #d62728"/>
     <use xlink:href="#m06f9906275" x="453.9045" y="205.466038" style="fill: #d62728; stroke: #d62728"/>
     <use xlink:href="#m06f9906275" x="398.1045" y="158.561654" style="fill: #d62728; stroke: #d62728"/>
     <use xlink:href="#m06f9906275" x="342.3045" y="212.352658" style="fill: #d62728; stroke: #d62728"/>
     <use xlink:href="#m06f9906275" x="286.5045" y="232.89749" style="fill: #d62728; stroke: #d62728"/>
     <use xlink:href="#m06f9906275" x="230.7045" y="238.274274" style="fill: #d62728; stroke: #d62728"/>
     <use xlink:href="#m06f9906275" x="174.9045" y="239.625417" style="fill: #d62728; stroke: #d62728"/>
     <use xlink:href="#m06f9906275" x="119.1045" y="239.963472" style="fill: #d62728; stroke: #d62728"/>
     <use xlink:href="#m06f9906275" x="63.3045" y="240.048" style="fill: #d62728; stroke: #d62728"/>
    </g>
   </g>
   <g id="patch_3">
    <path d="M 40.9845 251.136 
L 40.9845 7.2 
" style="fill: none; stroke: #000000; stroke-width: 0.8; stroke-linejoin: miter; stroke-linecap: square"/>
   </g>
   <g id="patch_4">
    <path d="M 532.0245 251.136 
L 532.0245 7.2 
" style="fill: none; stroke: #000000; stroke-width: 0.8; stroke-linejoin: miter; stroke-linecap: square"/>
   </g>
   <g id="patch_5">
    <path d="M 40.9845 251.136 
L 532.0245 251.136 
" style="fill: none; stroke: #000000; stroke-width: 0.8; stroke-linejoin: miter; stroke-linecap: square"/>
   </g>
   <g id="patch_6">
    <path d="M 40.9845 7.2 
L 532.0245 7.2 
" style="fill: none; stroke: #000000; stroke-width: 0.8; stroke-linejoin: miter; stroke-linecap: square"/>
   </g>
   <g id="legend_1">
    <g id="patch_7">
     <path d="M 51.0645 99.009 
L 176.66175 99.009 
Q 179.54175 99.009 179.54175 96.129 
L 179.54175 17.28 
Q 179.54175 14.4 176.66175 14.4 
L 51.0645 14.4 
Q 48.1845 14.4 48.1845 17.28 
L 48.1845 96.129 
Q 48.1845 99.009 51.0645 99.009 
z
" style="fill: #ffffff; opacity: 0.8; stroke: #cccccc; stroke-linejoin: miter"/>
    </g>
    <g id="line2d_39">
     <path d="M 53.9445 25.2 
L 68.3445 25.2 
L 82.7445 25.2 
" style="fill: none; stroke: #1f77b4; stroke-width: 1.5; stroke-linecap: square"/>
     <g>
      <use xlink:href="#m5f578e3135" x="68.3445" y="25.2" style="fill: #1f77b4; stroke: #1f77b4"/>
     </g>
    </g>
    <g id="text_20">
     <!-- Euler Ekv. 1 -->
     <g transform="translate(94.2645 30.24) scale(0.144 -0.144)">
      <defs>
       <path id="CMUSerif-Roman-45" d="M 213 0 
L 213 197 
L 366 197 
Q 713 197 792 255 
Q 872 313 872 500 
L 872 3853 
Q 872 4038 790 4095 
Q 709 4153 366 4153 
L 213 4153 
L 213 4353 
L 3816 4353 
L 3994 2913 
L 3834 2913 
Q 3791 3278 3733 3489 
Q 3675 3700 3536 3862 
Q 3397 4025 3170 4089 
Q 2944 4153 2578 4153 
L 1753 4153 
Q 1534 4153 1487 4108 
Q 1441 4063 1441 3897 
L 1441 2363 
L 2016 2363 
Q 2456 2363 2581 2516 
Q 2706 2669 2706 3109 
L 2869 3109 
L 2869 1416 
L 2706 1416 
Q 2706 1850 2581 2006 
Q 2456 2163 2016 2163 
L 1441 2163 
L 1441 453 
Q 1441 288 1489 242 
Q 1538 197 1753 197 
L 2606 197 
Q 2881 197 3082 233 
Q 3284 269 3425 358 
Q 3566 447 3661 550 
Q 3756 653 3823 839 
Q 3891 1025 3930 1197 
Q 3969 1369 4013 1650 
L 4172 1650 
L 3903 0 
L 213 0 
z
" transform="scale(0.015625)"/>
       <path id="CMUSerif-Roman-75" d="M 206 2559 
L 206 2759 
L 1147 2828 
L 1147 703 
Q 1147 550 1159 461 
Q 1172 372 1223 269 
Q 1275 166 1395 119 
Q 1516 72 1709 72 
Q 2056 72 2270 356 
Q 2484 641 2484 1063 
L 2484 2203 
Q 2484 2441 2400 2500 
Q 2316 2559 1984 2559 
L 1984 2759 
L 2925 2828 
L 2925 556 
Q 2925 319 3008 258 
Q 3091 197 3425 197 
L 3425 0 
L 2503 -72 
L 2503 506 
Q 2234 -69 1678 -72 
Q 1397 -72 1205 0 
Q 1013 72 916 161 
Q 819 250 767 422 
Q 716 594 709 700 
Q 703 806 703 1013 
L 703 1972 
Q 703 2406 640 2482 
Q 578 2559 206 2559 
z
" transform="scale(0.015625)"/>
       <path id="CMUSerif-Roman-72" d="M 178 0 
L 178 197 
Q 519 197 598 239 
Q 678 281 678 488 
L 678 2203 
Q 678 2441 595 2500 
Q 513 2559 178 2559 
L 178 2759 
L 1069 2828 
L 1069 2125 
Q 1159 2400 1351 2614 
Q 1544 2828 1856 2828 
Q 2063 2828 2195 2712 
Q 2328 2597 2328 2438 
Q 2328 2297 2242 2226 
Q 2156 2156 2053 2156 
Q 1938 2156 1858 2229 
Q 1778 2303 1778 2431 
Q 1778 2509 1814 2570 
Q 1850 2631 1878 2653 
Q 1906 2675 1925 2681 
Q 1913 2688 1856 2688 
Q 1503 2688 1301 2336 
Q 1100 1984 1100 1484 
L 1100 500 
Q 1100 316 1176 256 
Q 1253 197 1588 197 
L 1722 197 
L 1722 0 
Q 1466 19 909 19 
Q 831 19 709 16 
Q 588 13 428 6 
Q 269 0 178 0 
z
" transform="scale(0.015625)"/>
       <path id="CMUSerif-Roman-20" transform="scale(0.015625)"/>
      </defs>
      <use xlink:href="#CMUSerif-Roman-45"/>
      <use xlink:href="#CMUSerif-Roman-75" x="67.96875"/>
      <use xlink:href="#CMUSerif-Roman-6c" x="123.4375"/>
      <use xlink:href="#CMUSerif-Roman-65" x="151.123047"/>
      <use xlink:href="#CMUSerif-Roman-72" x="195.507812"/>
      <use xlink:href="#CMUSerif-Roman-20" x="234.570312"/>
      <use xlink:href="#CMUSerif-Roman-45" x="267.822266"/>
      <use xlink:href="#CMUSerif-Roman-6b" x="335.791016"/>
      <use xlink:href="#CMUSerif-Roman-76" x="388.476562"/>
      <use xlink:href="#CMUSerif-Roman-2e" x="441.162109"/>
      <use xlink:href="#CMUSerif-Roman-20" x="468.945312"/>
      <use xlink:href="#CMUSerif-Roman-31" x="502.197266"/>
     </g>
    </g>
    <g id="line2d_40">
     <path d="M 53.9445 45.27225 
L 68.3445 45.27225 
L 82.7445 45.27225 
" style="fill: none; stroke: #ff7f0e; stroke-width: 1.5; stroke-linecap: square"/>
     <g>
      <use xlink:href="#md984aa47bd" x="68.3445" y="45.27225" style="fill: #ff7f0e; stroke: #ff7f0e"/>
     </g>
    </g>
    <g id="text_21">
     <!-- Euler Ekv. 2 -->
     <g transform="translate(94.2645 50.31225) scale(0.144 -0.144)">
      <use xlink:href="#CMUSerif-Roman-45"/>
      <use xlink:href="#CMUSerif-Roman-75" x="67.96875"/>
      <use xlink:href="#CMUSerif-Roman-6c" x="123.4375"/>
      <use xlink:href="#CMUSerif-Roman-65" x="151.123047"/>
      <use xlink:href="#CMUSerif-Roman-72" x="195.507812"/>
      <use xlink:href="#CMUSerif-Roman-20" x="234.570312"/>
      <use xlink:href="#CMUSerif-Roman-45" x="267.822266"/>
      <use xlink:href="#CMUSerif-Roman-6b" x="335.791016"/>
      <use xlink:href="#CMUSerif-Roman-76" x="388.476562"/>
      <use xlink:href="#CMUSerif-Roman-2e" x="441.162109"/>
      <use xlink:href="#CMUSerif-Roman-20" x="468.945312"/>
      <use xlink:href="#CMUSerif-Roman-32" x="502.197266"/>
     </g>
    </g>
    <g id="line2d_41">
     <path d="M 53.9445 65.3445 
L 68.3445 65.3445 
L 82.7445 65.3445 
" style="fill: none; stroke: #2ca02c; stroke-width: 1.5; stroke-linecap: square"/>
     <g>
      <use xlink:href="#m90be69304f" x="68.3445" y="65.3445" style="fill: #2ca02c; stroke: #2ca02c"/>
     </g>
    </g>
    <g id="text_22">
     <!-- Heun Ekv. 1 -->
     <g transform="translate(94.2645 70.3845) scale(0.144 -0.144)">
      <defs>
       <path id="CMUSerif-Roman-48" d="M 213 0 
L 213 197 
L 366 197 
Q 713 197 792 255 
Q 872 313 872 500 
L 872 3872 
Q 872 4056 790 4114 
Q 709 4172 366 4172 
L 213 4172 
L 213 4372 
Q 438 4353 1159 4353 
Q 1875 4353 2100 4372 
L 2100 4172 
L 1947 4172 
Q 1600 4172 1520 4114 
Q 1441 4056 1441 3872 
L 1441 2375 
L 3353 2375 
L 3353 3872 
Q 3353 4056 3273 4114 
Q 3194 4172 2847 4172 
L 2694 4172 
L 2694 4372 
Q 2919 4353 3641 4353 
Q 4356 4353 4581 4372 
L 4581 4172 
L 4428 4172 
Q 4081 4172 4001 4114 
Q 3922 4056 3922 3872 
L 3922 500 
Q 3922 316 4003 256 
Q 4084 197 4428 197 
L 4581 197 
L 4581 0 
Q 4356 19 3634 19 
Q 2919 19 2694 0 
L 2694 197 
L 2847 197 
Q 3194 197 3273 255 
Q 3353 313 3353 500 
L 3353 2175 
L 1441 2175 
L 1441 500 
Q 1441 316 1520 256 
Q 1600 197 1947 197 
L 2100 197 
L 2100 0 
Q 1875 19 1153 19 
Q 438 19 213 0 
z
" transform="scale(0.015625)"/>
      </defs>
      <use xlink:href="#CMUSerif-Roman-48"/>
      <use xlink:href="#CMUSerif-Roman-65" x="75"/>
      <use xlink:href="#CMUSerif-Roman-75" x="119.384766"/>
      <use xlink:href="#CMUSerif-Roman-6e" x="174.853516"/>
      <use xlink:href="#CMUSerif-Roman-20" x="230.322266"/>
      <use xlink:href="#CMUSerif-Roman-45" x="263.574219"/>
      <use xlink:href="#CMUSerif-Roman-6b" x="331.542969"/>
      <use xlink:href="#CMUSerif-Roman-76" x="384.228516"/>
      <use xlink:href="#CMUSerif-Roman-2e" x="436.914062"/>
      <use xlink:href="#CMUSerif-Roman-20" x="464.697266"/>
      <use xlink:href="#CMUSerif-Roman-31" x="497.949219"/>
     </g>
    </g>
    <g id="line2d_42">
     <path d="M 53.9445 85.41675 
L 68.3445 85.41675 
L 82.7445 85.41675 
" style="fill: none; stroke: #d62728; stroke-width: 1.5; stroke-linecap: square"/>
     <g>
      <use xlink:href="#m06f9906275" x="68.3445" y="85.41675" style="fill: #d62728; stroke: #d62728"/>
     </g>
    </g>
    <g id="text_23">
     <!-- Heun Ekv. 2 -->
     <g transform="translate(94.2645 90.45675) scale(0.144 -0.144)">
      <use xlink:href="#CMUSerif-Roman-48"/>
      <use xlink:href="#CMUSerif-Roman-65" x="75"/>
      <use xlink:href="#CMUSerif-Roman-75" x="119.384766"/>
      <use xlink:href="#CMUSerif-Roman-6e" x="174.853516"/>
      <use xlink:href="#CMUSerif-Roman-20" x="230.322266"/>
      <use xlink:href="#CMUSerif-Roman-45" x="263.574219"/>
      <use xlink:href="#CMUSerif-Roman-6b" x="331.542969"/>
      <use xlink:href="#CMUSerif-Roman-76" x="384.228516"/>
      <use xlink:href="#CMUSerif-Roman-2e" x="436.914062"/>
      <use xlink:href="#CMUSerif-Roman-20" x="464.697266"/>
      <use xlink:href="#CMUSerif-Roman-32" x="497.949219"/>
     </g>
    </g>
   </g>
  </g>
 </g>
 <defs>
  <clipPath id="p39dbeae67a">
   <rect x="40.9845" y="7.2" width="491.04" height="243.936"/>
  </clipPath>
 </defs>
</svg>
